<?xml version="1.0" encoding="UTF-8" standalone="no"?>
<!-- Generator: Adobe Illustrator 18.1.1, SVG Export Plug-In . SVG Version: 6.00 Build 0)  -->

<svg
   xmlns:dc="http://purl.org/dc/elements/1.1/"
   xmlns:cc="http://creativecommons.org/ns#"
   xmlns:rdf="http://www.w3.org/1999/02/22-rdf-syntax-ns#"
   xmlns:svg="http://www.w3.org/2000/svg"
   xmlns="http://www.w3.org/2000/svg"
   xmlns:sodipodi="http://sodipodi.sourceforge.net/DTD/sodipodi-0.dtd"
   xmlns:inkscape="http://www.inkscape.org/namespaces/inkscape"
   version="1.1"
   id="Layer_1"
   x="0px"
   y="0px"
   viewBox="0 0 45.591679 77.654015"
   enable-background="new 0 0 792 612"
   xml:space="preserve"
   inkscape:version="0.91 r13725"
   sodipodi:docname="Flag.svg"
   width="45.591679"
   height="77.654015"><metadata
     id="metadata35"><rdf:RDF><cc:Work
         rdf:about=""><dc:format>image/svg+xml</dc:format><dc:type
           rdf:resource="http://purl.org/dc/dcmitype/StillImage" /><dc:title /></cc:Work></rdf:RDF></metadata><defs
     id="defs33"><inkscape:perspective
       sodipodi:type="inkscape:persp3d"
       inkscape:vp_x="0 : 38.827008 : 1"
       inkscape:vp_y="0 : 1000 : 0"
       inkscape:vp_z="45.591679 : 38.827008 : 1"
       inkscape:persp3d-origin="22.795839 : 25.884672 : 1"
       id="perspective3520" /></defs><sodipodi:namedview
     pagecolor="#ffffff"
     bordercolor="#666666"
     borderopacity="1"
     objecttolerance="10"
     gridtolerance="10"
     guidetolerance="10"
     inkscape:pageopacity="0"
     inkscape:pageshadow="2"
     inkscape:window-width="1600"
     inkscape:window-height="1138"
     id="namedview31"
     showgrid="false"
     fit-margin-top="0"
     fit-margin-left="0"
     fit-margin-right="0"
     fit-margin-bottom="0"
     inkscape:zoom="8.2281515"
     inkscape:cx="94.564126"
     inkscape:cy="31.169143"
     inkscape:window-x="-8"
     inkscape:window-y="-8"
     inkscape:window-maximized="1"
     inkscape:current-layer="g3" /><g
     id="g3"
     transform="translate(-371.99787,-270.34598)"><g
       id="g5"
       transform="translate(0.36460194,-0.24306796)"><path
         d="m 391.85192,333.90767 -1.82302,-0.72921 c -2.28903,-0.70622 -3.0805,-0.55577 -4.7289,-0.47846 -2.2,0.1 -4.8,0.1 -5.9,2.4 -1,2.3 1.8,4.3 3.3,3 1.1,-0.3 2.2,-0.2 3.3,-0.3 1.5,-0.1 3,-0.6 4.5,-0.3 -2.51803,-0.10489 -1.04069,-1.189 1.35192,-3.59233 z"
         id="path7"
         inkscape:connector-curvature="0"
         style="fill:#353333"
         sodipodi:nodetypes="cccccccc" /><g
         id="g9"><path
           d="m 384,282.3 2.9,57.1 c 0,0.4 -0.1,0.9 -0.4,1.3 l 0,0.1 c -0.9,1.3 -4.4,1.2 -4.5,-0.1 l -5.2,-56.9 c -0.1,-0.8 -2.83176,-10.44049 -2.03176,-10.74049 0.5,-0.2 5.99489,-0.87456 6.89489,-0.87456 0.6,-0.1 2.33687,9.41505 2.33687,10.11505 z"
           id="path11"
           inkscape:connector-curvature="0"
           style="fill:#f2b95f"
           sodipodi:nodetypes="ccccccccc" /><g
           id="g13"><path
             d="m 386.5,333.3 c -0.2,-5.9 -1,-11.7 -1.5,-17.6 l 1,22.7 c 0.5,-1.5 0.6,-3.3 0.5,-5.1 z"
             id="path15"
             inkscape:connector-curvature="0"
             style="fill:#f7cd97" /><path
             d="m 384.4,295 c -0.1,-2.5 0.1,-6.8 -0.7,-10.1 l 0.8,18.9 c 0,-2.9 0,-5.9 -0.1,-8.8 z"
             id="path17"
             inkscape:connector-curvature="0"
             style="fill:#f7cd97" /><path
             d="m 381.7,281.2 c -0.3,-0.1 -0.6,-0.1 -0.9,0.1 0.3,0 0.6,-0.1 0.9,-0.1 z"
             id="path19"
             inkscape:connector-curvature="0"
             style="fill:#f7cd97" /><path
             d="m 380.3,283.6 c 2.1,2.1 1.5,10.1 1.6,13.3 0.1,4.8 -0.1,9.6 0.2,14.4 0.3,4.3 0.8,8.5 1.2,12.8 0.3,3.1 2.3,12.6 -0.8,14.6 -1.4,0.9 -0.4,2.6 1.3,2.6 1.2,0 2.3,-0.8 2.7,-2 L 385,315.7 c 0,-0.5 -0.1,-1.1 -0.1,-1.6 -0.3,-3.4 -0.3,-6.9 -0.4,-10.3 l -0.8,-18.9 c -0.3,-1.4 -0.8,-2.6 -1.6,-3.4 -0.1,-0.1 -2.75216,-9.00079 -2.85216,-9.10079 -0.3,0 -2.95823,0.39536 -3.25823,0.49536 -0.8,0.4 3.51039,9.90543 4.31039,10.70543 z"
             id="path21"
             inkscape:connector-curvature="0"
             style="fill:#f7cd97"
             sodipodi:nodetypes="sccccscccccsccs" /></g></g><path
         d="m 398.28436,347.6354 c 0.84507,-1.23544 0.84718,-1.25254 -2.16828,-8.45575 -2.55972,-4.65046 -2.57428,-4.64995 -6.31756,-6.30753 0,0.2 -0.39498,0.84691 -0.99631,1.38747 -1.12286,0.5556 -1.16062,0.54041 -2.26062,0.54041 -3.63197,0.1 -4.93226,0.2 -7.3,-0.7 -3,2.3 -8.14159,10.8 -7.14159,13.8 l 12.54217,-0.12153 z"
         id="path23"
         inkscape:connector-curvature="0"
         style="fill:#603d0b"
         sodipodi:nodetypes="ccccccccc" /><path
         d="m 380.5,346.7 c -1.6,-0.2 -4.6,0.1 -5.4,-1.7 -0.9,-2 1.9,-3.6 3,-5 1.3,-1.7 2.4,-3.5 4.2,-4.7 -0.7,-0.3 -1.6,-0.2 -2.3,0.4 -2.7,2.2 -4.9,4.9 -6.4,7.9 -0.5,1.1 -0.2,2.9 1.3,3.1 3.9,0.5 7.8,0.8 11.7,0.8 0.7,0 1.2,-0.3 1.6,-0.7 -2.5,0.4 -5.2,0.2 -7.7,-0.1 z"
         id="path25"
         inkscape:connector-curvature="0"
         style="fill:#4c2e0a" /><path
         d="m 389.35546,336.35693 -0.35576,-0.0304 c 3.55817,3.15192 7.2616,7.45167 2.0593,10.86077 6.02705,-2.15623 4.65921,-8.06956 -1.70354,-10.83039 z"
         id="path27"
         inkscape:connector-curvature="0"
         style="fill:#724510"
         sodipodi:nodetypes="ccccc" /></g><path
       stroke-miterlimit="10"
       d="m 373.95693,278.11062 c 7.20321,9.33672 0.61441,21.02648 4.93688,29.57404 16.19053,-12.48099 23.8951,2.85546 25.88495,-3.76313 2.2603,-7.51814 -4.23181,-27.78975 -3.61859,-27.30758 -7.60793,3.56455 -10.49092,-8.2114 -27.20324,1.49667 z"
       id="path29"
       inkscape:connector-curvature="0"
       style="fill:#f22539;stroke:#960914;stroke-miterlimit:10"
       sodipodi:nodetypes="ccscc" /><path
       sodipodi:type="star"
       style="fill:none"
       id="path3568"
       sodipodi:sides="5"
       sodipodi:cx="412.38849"
       sodipodi:cy="274.43749"
       sodipodi:r1="16.981955"
       sodipodi:r2="8.4909773"
       sodipodi:arg1="1.4081435"
       sodipodi:arg2="2.036462"
       inkscape:flatsided="false"
       inkscape:rounded="0"
       inkscape:randomized="0"
       d="m 415.13849,291.19531 -6.5626,-9.17093 -11.27523,0.20697 6.69412,-9.07537 -3.68108,-10.65943 10.69979,3.56204 9.0002,-6.79485 -0.0813,11.27683 9.24351,6.45997 -10.75003,3.40743 z"
       inkscape:transform-center-x="-0.84979675"
       inkscape:transform-center-y="0.79202399" /><rect
       style="opacity:0.43999999;fill:#ffd5d5;fill-opacity:0.01775148"
       id="rect4400"
       width="5.2259612"
       height="6.805903"
       x="411.61795"
       y="339.37109" /></g></svg>