<?xml version="1.0" encoding="UTF-8" standalone="no"?>
<!-- Generator: Adobe Illustrator 18.1.1, SVG Export Plug-In . SVG Version: 6.00 Build 0)  -->

<svg
   xmlns:dc="http://purl.org/dc/elements/1.1/"
   xmlns:cc="http://creativecommons.org/ns#"
   xmlns:rdf="http://www.w3.org/1999/02/22-rdf-syntax-ns#"
   xmlns:svg="http://www.w3.org/2000/svg"
   xmlns="http://www.w3.org/2000/svg"
   xmlns:sodipodi="http://sodipodi.sourceforge.net/DTD/sodipodi-0.dtd"
   xmlns:inkscape="http://www.inkscape.org/namespaces/inkscape"
   version="1.1"
   id="Layer_1"
   x="0px"
   y="0px"
   viewBox="0 0 45.591679 77.654015"
   enable-background="new 0 0 792 612"
   xml:space="preserve"
   inkscape:version="0.91 r13725"
   sodipodi:docname="Flag.svg"
   width="45.591679"
   height="77.654015"><metadata
     id="metadata35"><rdf:RDF><cc:Work
         rdf:about=""><dc:format>image/svg+xml</dc:format><dc:type
           rdf:resource="http://purl.org/dc/dcmitype/StillImage" /><dc:title></dc:title></cc:Work></rdf:RDF></metadata><defs
     id="defs33" /><sodipodi:namedview
     pagecolor="#ffffff"
     bordercolor="#666666"
     borderopacity="1"
     objecttolerance="10"
     gridtolerance="10"
     guidetolerance="10"
     inkscape:pageopacity="0"
     inkscape:pageshadow="2"
     inkscape:window-width="1600"
     inkscape:window-height="1138"
     id="namedview31"
     showgrid="false"
     fit-margin-top="0"
     fit-margin-left="0"
     fit-margin-right="0"
     fit-margin-bottom="0"
     inkscape:zoom="0.36363636"
     inkscape:cx="24.002131"
     inkscape:cy="42"
     inkscape:window-x="-8"
     inkscape:window-y="-8"
     inkscape:window-maximized="1"
     inkscape:current-layer="Layer_1" /><g
     id="g3"
     transform="translate(-371.99787,-270.34598)"><g
       id="g5"><path
         d="m 392.2,333.5 c -0.2,-0.1 -0.4,-0.1 -0.5,-0.2 0,0 0,0 0,0 0,0 0,0 -0.1,0 -2.1,-0.7 -4,-0.7 -6.3,-0.6 -2.2,0.1 -4.8,0.1 -5.9,2.4 -1,2.3 1.8,4.3 3.3,3 1.1,-0.3 2.2,-0.2 3.3,-0.3 1.5,-0.1 3,-0.6 4.5,-0.3 2.2,0.4 4.2,-3 1.7,-4 z"
         id="path7"
         inkscape:connector-curvature="0"
         style="fill:#353333" /><g
         id="g9"><path
           d="m 384,282.3 2.9,57.1 c 0,0.4 -0.1,0.9 -0.4,1.3 l 0,0.1 c -0.9,1.3 -4.4,1.2 -4.5,-0.1 l -5.2,-56.9 c -0.1,-0.8 0.5,-1.8 1.3,-2.1 0.5,-0.2 4,-0.4 4.9,-0.4 0.6,-0.1 1,0.3 1,1 z"
           id="path11"
           inkscape:connector-curvature="0"
           style="fill:#f2b95f" /><g
           id="g13"><path
             d="m 386.5,333.3 c -0.2,-5.9 -1,-11.7 -1.5,-17.6 l 1,22.7 c 0.5,-1.5 0.6,-3.3 0.5,-5.1 z"
             id="path15"
             inkscape:connector-curvature="0"
             style="fill:#f7cd97" /><path
             d="m 384.4,295 c -0.1,-2.5 0.1,-6.8 -0.7,-10.1 l 0.8,18.9 c 0,-2.9 0,-5.9 -0.1,-8.8 z"
             id="path17"
             inkscape:connector-curvature="0"
             style="fill:#f7cd97" /><path
             d="m 381.7,281.2 c -0.3,-0.1 -0.6,-0.1 -0.9,0.1 0.3,0 0.6,-0.1 0.9,-0.1 z"
             id="path19"
             inkscape:connector-curvature="0"
             style="fill:#f7cd97" /><path
             d="m 380.3,283.6 c 2.1,2.1 1.5,10.1 1.6,13.3 0.1,4.8 -0.1,9.6 0.2,14.4 0.3,4.3 0.8,8.5 1.2,12.8 0.3,3.1 2.3,12.6 -0.8,14.6 -1.4,0.9 -0.4,2.6 1.3,2.6 1.2,0 2.3,-0.8 2.7,-2 L 385,315.7 c 0,-0.5 -0.1,-1.1 -0.1,-1.6 -0.3,-3.4 -0.3,-6.9 -0.4,-10.3 l -0.8,-18.9 c -0.3,-1.4 -0.8,-2.6 -1.6,-3.4 -0.1,-0.1 -0.3,-0.2 -0.4,-0.3 -0.3,0 -0.6,0 -0.9,0.1 -0.8,0.4 -1.3,1.5 -0.5,2.3 z"
             id="path21"
             inkscape:connector-curvature="0"
             style="fill:#f7cd97" /></g></g><path
         d="m 401.9,348 c 2.3,-2 -0.9,-6.1 -2.7,-8 -2.2,-2.3 -4.8,-5.3 -7.7,-6.9 0,0.2 0,0.3 -0.1,0.4 -0.5,1.3 -2.3,1.3 -3.4,1.3 -2.5,0.1 -4.9,0.2 -7.3,-0.7 -3,2.3 -9.6,10.8 -8.6,13.8 l 29.8,0 z"
         id="path23"
         inkscape:connector-curvature="0"
         style="fill:#603d0b" /><path
         d="m 380.5,346.7 c -1.6,-0.2 -4.6,0.1 -5.4,-1.7 -0.9,-2 1.9,-3.6 3,-5 1.3,-1.7 2.4,-3.5 4.2,-4.7 -0.7,-0.3 -1.6,-0.2 -2.3,0.4 -2.7,2.2 -4.9,4.9 -6.4,7.9 -0.5,1.1 -0.2,2.9 1.3,3.1 3.9,0.5 7.8,0.8 11.7,0.8 0.7,0 1.2,-0.3 1.6,-0.7 -2.5,0.4 -5.2,0.2 -7.7,-0.1 z"
         id="path25"
         inkscape:connector-curvature="0"
         style="fill:#4c2e0a" /><path
         d="m 393.4,337 c -0.7,-0.5 -1.4,-0.6 -2.1,-0.4 0,0 0,0 0.1,0 2.3,2 6.3,4.9 5.6,8.2 -0.2,1.1 -0.9,2 -1.9,2.6 1.8,-0.4 3.5,-1 4.5,-2.3 2.5,-3.3 -3.9,-6.4 -6.2,-8.1 z"
         id="path27"
         inkscape:connector-curvature="0"
         style="fill:#724510" /></g><path
       stroke-miterlimit="10"
       d="m 374.2,274.1 3.6,34.8 c 0,0 26.4,-9 35,-5.1 8.6,3.9 1.6,-26.9 1.6,-26.9 0,0 -35.3,-11.5 -40.2,-2.8 z"
       id="path29"
       inkscape:connector-curvature="0"
       style="fill:#f22539;stroke:#960914;stroke-miterlimit:10" /></g></svg>