<?xml version="1.0" encoding="UTF-8" standalone="no"?>
<!-- Generator: Adobe Illustrator 18.1.1, SVG Export Plug-In . SVG Version: 6.00 Build 0)  -->

<svg
   xmlns:dc="http://purl.org/dc/elements/1.1/"
   xmlns:cc="http://creativecommons.org/ns#"
   xmlns:rdf="http://www.w3.org/1999/02/22-rdf-syntax-ns#"
   xmlns:svg="http://www.w3.org/2000/svg"
   xmlns="http://www.w3.org/2000/svg"
   xmlns:sodipodi="http://sodipodi.sourceforge.net/DTD/sodipodi-0.dtd"
   xmlns:inkscape="http://www.inkscape.org/namespaces/inkscape"
   version="1.1"
   id="Layer_1"
   x="0px"
   y="0px"
   viewBox="0 0 92.182274 90.647141"
   enable-background="new 0 0 792 612"
   xml:space="preserve"
   inkscape:version="0.91 r13725"
   sodipodi:docname="Lava1.svg"
   width="92.182274"
   height="90.647141"><metadata
     id="metadata241"><rdf:RDF><cc:Work
         rdf:about=""><dc:format>image/svg+xml</dc:format><dc:type
           rdf:resource="http://purl.org/dc/dcmitype/StillImage" /><dc:title></dc:title></cc:Work></rdf:RDF></metadata><defs
     id="defs239" /><sodipodi:namedview
     pagecolor="#ffffff"
     bordercolor="#666666"
     borderopacity="1"
     objecttolerance="10"
     gridtolerance="10"
     guidetolerance="10"
     inkscape:pageopacity="0"
     inkscape:pageshadow="2"
     inkscape:window-width="640"
     inkscape:window-height="480"
     id="namedview237"
     showgrid="false"
     fit-margin-top="0"
     fit-margin-left="0"
     fit-margin-right="0"
     fit-margin-bottom="0"
     inkscape:zoom="0.36363636"
     inkscape:cx="45.629285"
     inkscape:cy="46.524044"
     inkscape:window-x="0"
     inkscape:window-y="0"
     inkscape:window-maximized="0"
     inkscape:current-layer="Layer_1" /><g
     id="g3"
     transform="translate(-350.37071,-261.87691)"><g
       id="g5"><path
         d="m 442.3,276.2 c 0,5.6 0,11.1 0,16.7 -0.7,0.2 -1.5,0.3 -2.2,0.5 -1.6,-0.1 -3.2,-0.3 -4.9,-0.4 -4.4,2.3 -8.2,-2 -12.5,-1.2 -3.5,-2.3 -8,-3.8 -6.4,-9.5 1.6,-0.9 3.2,-1.8 4.7,-2.8 0.3,0.1 0.7,0.1 1,0.1 1.4,6.2 3.5,7.2 10.6,5 -0.8,-1.3 -1.7,-2.5 -2.5,-3.8 -1.3,-2.3 4.7,-4.5 0.1,-6.9 -5.1,-5 -5,-6.1 1.2,-8.4 0.9,0.7 1.8,1.6 2.8,2.2 3.3,1.9 3.4,1.9 1.7,5.4 -0.5,1.1 0.2,1.9 1.1,2.4 1.7,1 3.5,0.9 5.3,0.7 z"
         id="path7"
         inkscape:connector-curvature="0"
         style="fill:#8e0000" /><path
         d="m 392.4,352.4 c -2.4,0 -4.8,0 -7.1,0 -0.1,-1.9 -0.1,-3.8 -2.1,-4.9 -0.5,-2.4 -0.9,-4.9 -1.4,-7.3 4.7,0.1 3.9,4.9 6.6,9.1 -0.6,-4.3 -0.5,-6.8 0.3,-9.3 0.6,-1.8 1.6,-3.1 3.3,-1.9 6.3,4.5 13.6,3.2 20.6,3.7 0,0.3 0.1,0.7 0.1,1 1,3.3 4.4,5.6 3.5,9.6 -3.2,0 -6.3,0 -9.5,0 0.4,-1.9 0.9,-3.9 1.1,-5.8 0.2,-1.4 0,-3.2 -2.1,-2.7 -5.4,1.4 -11.8,1.2 -13.3,8.5 z"
         id="path9"
         inkscape:connector-curvature="0"
         style="fill:#e61000" /><path
         d="m 421.2,279.5 c -1.6,0.9 -3.2,1.8 -4.7,2.8 -0.4,-1.1 -1.4,-2.6 -1,-3.1 3.9,-5.7 0.8,-6.2 -4,-5.8 -1.1,0.1 -2.2,-0.5 -3.4,-0.8 0,-0.7 0,-1.4 0,-2.1 4.1,-2.9 -0.6,-5.6 -0.2,-8.5 2.8,0 5.6,0 8.3,0 0.2,1.6 -0.7,4 1.1,4.7 2.3,0.9 2.9,-1.9 4.2,-3.1 0.4,-0.4 0.5,-1 0.7,-1.5 0.8,0 1.6,0 2.4,0 0.8,0.9 1.6,0.9 2.4,0 1.6,0 3.2,0 4.8,0 0,1.2 0,2.4 0,3.6 -6.1,2.3 -6.3,3.5 -1.2,8.4 -3.5,1.4 -9.2,-1.1 -9.4,5.4 z"
         id="path11"
         inkscape:connector-curvature="0"
         style="fill:#a60000" /><path
         d="m 422.8,291.8 c 4.3,-0.8 8,3.5 12.5,1.2 -1.9,5.2 -1.8,9.9 3.7,13 0,0.4 -0.1,0.8 -0.1,1.3 -1.5,1.1 -4.2,2 -2.3,4.4 1.9,2.3 3.9,0.1 5.8,-0.9 0,3.6 0,7.1 0,10.7 -1.6,-0.3 -3.2,-0.6 -4.8,-1 -2.6,-6.9 -3.1,-7.2 -9.6,-4.7 -0.7,-0.2 -1.5,-0.3 -2.2,-0.5 -0.6,-2.1 -1.5,-4.5 2.2,-4.5 2.5,0 2.5,-0.9 2.9,-3.3 1.2,-7.2 -4.5,-9.6 -8.1,-13.5 0,-0.8 0,-1.5 0,-2.2 z"
         id="path13"
         inkscape:connector-curvature="0"
         style="fill:#670000" /><path
         d="m 372.1,352.4 c -0.8,0 -1.6,0 -2.4,0 -4.7,-4.4 -9.5,-8.8 -14.2,-13.1 -0.4,-0.4 -0.9,-0.8 -1.3,-1.1 0.4,-1.6 0.8,-3.1 1.2,-4.7 1.6,0 3.2,-0.1 4.8,-0.1 0.7,1.4 1.6,2.5 3.4,1.8 1.2,0 2.5,-0.1 3.7,-0.1 1.1,0.7 2.2,1.4 3.3,2.1 0.8,1.5 1.6,3 2.3,4.5 -1.3,0.7 -2.6,2.1 -1.4,3.1 3.4,2.4 0.7,5 0.6,7.6 z"
         id="path15"
         inkscape:connector-curvature="0"
         style="fill:#0a0000" /><path
         d="m 392.4,262 c 1.2,0 2.4,0 3.6,0 0,2.1 -1.9,4.4 0.8,6.1 -0.7,1.5 -1.4,3 -2.1,4.5 -5.9,1.4 -1.9,5.5 -2.3,8.4 -3.1,1 -4.5,-3.7 -7.7,-2.4 -0.1,-1.8 -1.4,-2.7 -3,-3.1 -3.7,-6.1 -6.3,1.1 -9.6,0.8 0,-1.6 0,-3.1 -0.1,-4.7 0.7,-0.3 1.5,-0.5 2.2,-0.8 4.7,-1.8 9,-6.2 14.5,-1.6 1.5,1.3 3,-0.2 3.3,-2 0.4,-1.7 0.3,-3.5 0.4,-5.2 z"
         id="path17"
         inkscape:connector-curvature="0"
         style="fill:#f82400" /><path
         d="m 425.8,315.3 c 0.7,0.2 1.5,0.3 2.2,0.5 3,2 5.5,5 9.6,4.7 1.6,0.3 3.2,0.6 4.8,1 0,2 0,4 0,5.9 -0.9,0 -1.7,0 -2.6,0 -1.9,-0.2 -3.7,-0.3 -5.6,-0.5 -6.7,-2.5 -13.8,-4.5 -15.6,-12.9 0.4,-0.3 0.7,-0.5 1.1,-0.8 1.8,1.3 3.6,2.7 6.1,2.1 z"
         id="path19"
         inkscape:connector-curvature="0"
         style="fill:#cc0200" /><path
         d="m 360.2,333.3 c -1.6,0 -3.2,0.1 -4.8,0.1 -1.6,-1.2 -3.2,-2.4 -4.8,-3.6 0,-1.6 0,-3.2 0,-4.8 2.8,-1 5.3,-0.9 7,2 1.7,2.9 3.7,3.2 6,0.6 1,-1.1 2.3,-1.4 3.7,-1.5 0.3,0.1 0.6,0.2 0.9,0.3 2.1,6.4 7.7,10.8 10,17.1 -2.3,0.6 -4.2,0.4 -5.3,-2 -0.8,-1.5 -1.6,-3 -2.3,-4.5 -0.3,-2 -0.6,-4 -3.3,-2.1 -1.2,0 -2.5,0.1 -3.7,0.1 -0.5,-1.6 -1.2,-3 -3.4,-1.7 z"
         id="path21"
         inkscape:connector-curvature="0"
         style="fill:#670000" /><path
         d="m 392.4,262 c -0.1,1.8 0,3.5 -0.2,5.3 -0.3,1.8 -1.7,3.3 -3.3,2 -5.5,-4.7 -9.8,-0.2 -14.5,1.6 -0.7,0.3 -1.5,0.5 -2.2,0.8 0,0 0,0 0,0 -0.1,-3 0.5,-6.4 -3.7,-7.2 -0.3,-0.1 -0.5,-0.2 -0.7,-0.4 -0.1,-0.7 -0.2,-1.4 -0.3,-2 8.2,-0.1 16.5,-0.1 24.9,-0.1 z"
         id="path23"
         inkscape:connector-curvature="0"
         style="fill:#cc0200" /><path
         d="m 431.6,352.4 c -2.8,0 -5.6,0 -8.3,0 -2.5,-2.2 -3.3,-5 -1.6,-7.8 1.5,-2.6 3.7,-0.8 5.6,-0.1 2.8,0.9 2.8,-1 2.7,-2.9 0.9,-0.1 1.8,-0.3 2.7,-0.4 0.7,0.3 1.5,0.5 2.2,0.8 0.4,0.4 0.8,0.8 1.2,1.1 0.2,1.8 0.5,3.7 0.7,5.5 -1.6,1.4 -4.1,1.7 -5.2,3.8 z"
         id="path25"
         inkscape:connector-curvature="0"
         style="fill:#fd8b01" /><path
         d="m 350.7,316.7 c 0,-1.6 0,-3.2 0,-4.8 8,-0.3 8,-0.3 7.2,-7.9 -0.1,-0.9 0.1,-1.9 0.2,-2.9 6.3,1.5 6.5,7.9 9.4,12.1 -0.4,0.4 -0.8,0.8 -1.1,1.1 -1.1,-0.3 -2.2,-0.5 -3.3,-1 -1,-0.4 -2,-1.5 -3.1,-0.4 -1.2,1.2 -0.1,2.5 0.3,3.7 -3.2,5 -6.4,-0.1 -9.6,0.1 z"
         id="path27"
         inkscape:connector-curvature="0"
         style="fill:#cc0200" /><path
         d="m 354.3,262 c 1.6,0 3.2,0 4.8,0 0.1,2 0.1,4.1 1.1,6 -0.8,6.6 2.3,13.7 -2.3,19.9 -0.5,0.7 -0.5,1.6 0.2,2.1 5.4,3.2 -0.3,3.8 -1.3,5.5 -3.6,-4.7 -0.7,-10.9 -3.8,-15.7 1,-0.7 2,-1.5 3,-2.2 2.7,-3.5 2.2,-7.1 0.2,-10.7 -0.5,-1.7 -1.2,-3.3 -1.9,-4.9 z"
         id="path29"
         inkscape:connector-curvature="0"
         style="fill:#8e0000" /><path
         d="m 353.1,279.7 c 3,4.8 0.2,11 3.8,15.7 -1.1,0.9 -1.5,2 -1.3,3.4 -0.9,3.2 -1.7,6.4 -4.8,8.3 0,-9.5 0,-19 0,-28.5 0.7,0.4 1.5,0.8 2.3,1.1 z"
         id="path31"
         inkscape:connector-curvature="0"
         style="fill:#670000" /><path
         d="m 355.6,339.2 c 4.7,4.4 9.5,8.8 14.2,13.1 -4.8,0 -9.5,0 -14.3,0 1.3,-3.7 0.7,-6.5 -3.7,-7.3 1.3,-1.9 3.3,-3.3 3.8,-5.8 z"
         id="path33"
         inkscape:connector-curvature="0"
         style="fill:#350000" /><path
         d="m 378.3,343.6 c -2.4,-6.3 -7.9,-10.7 -10,-17.1 1.3,-0.1 2.6,-0.2 4,-0.3 0.7,1.2 1.5,2.4 2.2,3.6 0,1.9 -0.1,4 2.2,4.9 0.8,0.5 1.6,1 2.5,1.5 0,1.9 1,3.2 2.5,4 0.5,2.4 0.9,4.9 1.4,7.3 -0.1,1.6 -0.2,3.2 -0.3,4.9 -1.6,0 -3.2,0 -4.8,0 0,-1.2 -0.1,-2.4 -0.1,-3.7 0.1,-0.3 0.3,-0.6 0.4,-0.9 2.3,-1.2 2.3,-2.5 0.2,-4 l -0.2,-0.2 z"
         id="path35"
         inkscape:connector-curvature="0"
         style="fill:#a60000" /><path
         d="m 350.7,316.7 c 3.2,-0.2 6.4,4.9 9.5,0 0.4,0 0.7,0 1.1,0 -0.2,1.1 -0.4,2.2 -0.7,3.3 -0.3,1.3 -2.8,2.3 -0.9,3.9 2.1,1.7 3.9,0.8 5.3,-1.2 0.7,0.1 1.5,0.1 2.2,0.2 0,1.1 0.1,2.2 0.1,3.3 -1.4,0.1 -2.7,0.4 -3.7,1.5 -2.3,2.6 -4.3,2.2 -6,-0.6 -1.7,-3 -4.2,-3.1 -7,-2 0.1,-2.9 0.1,-5.6 0.1,-8.4 z"
         id="path37"
         inkscape:connector-curvature="0"
         style="fill:#a60000" /><path
         d="m 392.4,352.4 c 1.6,-7.3 8,-7.1 13.3,-8.5 2,-0.5 2.2,1.2 2.1,2.7 -0.2,2 -0.7,3.9 -1.1,5.8 -4.8,0 -9.6,0 -14.3,0 z"
         id="path39"
         inkscape:connector-curvature="0"
         style="fill:#8e0000" /><path
         d="m 430,341.5 c 0.1,1.9 0.1,3.8 -2.7,2.9 -2,-0.6 -4.1,-2.5 -5.6,0.1 -1.7,2.8 -0.8,5.6 1.6,7.8 -2.4,0 -4.8,0 -7.1,0 0.9,-4 -2.5,-6.3 -3.5,-9.6 4.8,2.5 7.5,-1 10.6,-3.5 2,1.5 4,2.8 6.7,2.3 z"
         id="path41"
         inkscape:connector-curvature="0"
         style="fill:#fe5301" /><path
         d="m 431.6,265.5 c 0,-1.2 0,-2.4 0,-3.6 2,0 4,0 5.9,0 -1.4,5.1 1,5.2 4.8,3.6 0,3.6 0,7.1 0,10.7 -1.8,0.1 -3.6,0.2 -5.2,-0.7 -0.9,-0.5 -1.6,-1.2 -1.1,-2.4 1.6,-3.5 1.6,-3.5 -1.7,-5.4 -1,-0.6 -1.8,-1.4 -2.7,-2.2 z"
         id="path43"
         inkscape:connector-curvature="0"
         style="fill:#350000" /><path
         d="m 350.7,307.2 c 3.1,-1.9 3.9,-5.2 4.8,-8.3 0.8,0 1.5,0.1 2.3,0.1 0.1,0.7 0.2,1.5 0.3,2.2 -0.1,1 -0.3,1.9 -0.2,2.9 0.8,7.6 0.8,7.6 -7.2,7.9 0,-1.7 0,-3.2 0,-4.8 z"
         id="path45"
         inkscape:connector-curvature="0"
         style="fill:#a60000" /><path
         d="m 436.1,343 c -0.4,-0.4 -0.8,-0.8 -1.2,-1.1 0.2,-0.5 0.3,-0.9 0.5,-1.3 3.2,-1.6 -0.4,-3.1 -0.1,-4.6 4.9,-1.1 5.1,-4.6 4.5,-8.5 0.9,0 1.7,0 2.6,0 0,4.8 0,9.5 0,14.3 -2.2,0.3 -4.2,0.8 -6.3,1.2 z"
         id="path47"
         inkscape:connector-curvature="0"
         style="fill:#f82400" /><path
         d="m 438.8,307.2 c 0,-0.4 0.1,-0.8 0.1,-1.3 0.7,-4.1 -3,-8.7 1.2,-12.5 0.7,-0.2 1.5,-0.3 2.2,-0.5 0,5.6 0,11.1 0,16.7 -1.5,-0.3 -2.7,-1 -3.5,-2.4 z"
         id="path49"
         inkscape:connector-curvature="0"
         style="fill:#0a0000" /><path
         d="m 356.3,266.8 c 2,3.6 2.4,7.2 -0.2,10.7 -3.2,-0.1 -2.7,-4.2 -5.4,-4.8 0,-1.2 0,-2.4 0,-3.6 2.3,0.1 3.9,-1.1 5.6,-2.3 z"
         id="path51"
         inkscape:connector-curvature="0"
         style="fill:#350000" /><path
         d="m 396.8,268.1 c -2.7,-1.7 -0.9,-4 -0.8,-6.1 2,0 4,0 5.9,0 -1.1,4 3,7.2 1.7,11.2 -3.1,-0.7 -2.2,-6.5 -6.8,-5.1 z"
         id="path53"
         inkscape:connector-curvature="0"
         style="fill:#fe7101" /><path
         d="m 403.6,273.2 c 1.3,-4 -2.8,-7.2 -1.7,-11.2 1.2,0 2.4,0 3.6,0 -0.5,3.2 1.6,5.7 2.6,8.5 0,0.7 0,1.4 0,2.1 0,1.2 0,2.4 -0.1,3.6 -0.9,-0.2 -1.8,-0.3 -2.6,-0.5 -0.7,-0.9 -1.2,-1.7 -1.8,-2.5 z"
         id="path55"
         inkscape:connector-curvature="0"
         style="fill:#f82400" /><path
         d="m 378.3,347.8 c -0.1,0.3 -0.3,0.6 -0.4,0.9 -1.8,0.6 -2.2,2 -2.2,3.7 -1.2,0 -2.4,0 -3.6,0 0.1,-2.6 2.8,-5.1 -0.5,-7.8 -1.2,-1 0.1,-2.4 1.4,-3.1 1.1,2.4 3,2.6 5.3,2 0,0 0.2,0.3 0.2,0.3 0,1.4 -0.1,2.7 -0.2,4 z"
         id="path57"
         inkscape:connector-curvature="0"
         style="fill:#350000" /><path
         d="m 351.8,345 c 4.4,0.8 5,3.6 3.7,7.3 -7.3,1.4 -4.1,-4.1 -4.8,-7.1 0.4,0 0.7,-0.1 1.1,-0.2 z"
         id="path59"
         inkscape:connector-curvature="0"
         style="fill:#0a0000" /><path
         d="m 356.3,266.8 c -1.7,1.1 -3.4,2.4 -5.6,2.3 1.5,-2.2 -3.5,-7.7 3.6,-7.1 0.7,1.6 1.4,3.2 2,4.8 z"
         id="path61"
         inkscape:connector-curvature="0"
         style="fill:#0a0000" /><path
         d="m 436.1,343 c 2.1,-0.4 4.2,-0.9 6.2,-1.3 0,1.6 0,3.2 0,4.8 -1.6,0.2 -2.8,1 -3.6,2.4 -0.6,-0.1 -1.3,-0.2 -1.9,-0.3 -0.2,-1.9 -0.5,-3.8 -0.7,-5.6 z"
         id="path63"
         inkscape:connector-curvature="0"
         style="fill:#fe3601" /><path
         d="m 350.7,329.8 c 1.6,1.2 3.2,2.4 4.8,3.6 -0.4,1.6 -0.8,3.1 -1.2,4.7 -1.2,0 -2.4,0 -3.6,0 0,-2.8 0,-5.6 0,-8.3 z"
         id="path65"
         inkscape:connector-curvature="0"
         style="fill:#350000" /><path
         d="m 367.4,262 c 0.1,0.7 0.2,1.4 0.3,2 -4,-0.1 -3.5,3.5 -4.6,5.8 -0.5,-0.6 -1,-1.3 -1.5,-1.9 0,-2 0,-3.9 0,-5.9 1.8,0 3.8,0 5.8,0 z"
         id="path67"
         inkscape:connector-curvature="0"
         style="fill:#f82400" /><path
         d="m 422.1,262 c -0.2,0.5 -0.3,1.2 -0.7,1.5 -1.3,1.2 -1.9,4 -4.2,3.1 -1.8,-0.7 -0.9,-3 -1.1,-4.7 2,0.1 4,0.1 6,0.1 z"
         id="path69"
         inkscape:connector-curvature="0"
         style="fill:#cc0200" /><path
         d="m 350.7,338.1 c 1.2,0 2.4,0 3.6,0 0.4,0.4 0.9,0.8 1.3,1.1 -0.5,2.4 -2.4,3.9 -3.8,5.8 -0.4,0.1 -0.7,0.1 -1.1,0.2 0,-2.3 0,-4.7 0,-7.1 z"
         id="path71"
         inkscape:connector-curvature="0"
         style="fill:#670000" /><path
         d="m 408.1,270.5 c -1,-2.8 -3.1,-5.2 -2.6,-8.5 0.8,0 1.6,0 2.4,0 -0.4,2.8 4.3,5.5 0.2,8.5 z"
         id="path73"
         inkscape:connector-curvature="0"
         style="fill:#cc0200" /><path
         d="m 438.8,307.2 c 0.8,1.4 1.9,2.1 3.5,2.3 0,0.4 0,0.8 0,1.2 -1.8,1 -3.8,3.2 -5.8,0.9 -1.9,-2.4 0.8,-3.3 2.3,-4.4 z"
         id="path75"
         inkscape:connector-curvature="0"
         style="fill:#350000" /><path
         d="m 442.3,265.5 c -3.7,1.7 -6.1,1.6 -4.8,-3.6 2.5,0.2 5.9,-1.1 4.8,3.6 z"
         id="path77"
         inkscape:connector-curvature="0"
         style="fill:#0a0000" /><path
         d="m 438.8,348.8 c 0.8,-1.4 2,-2.2 3.6,-2.4 -0.8,2.2 2.4,6.8 -3.6,5.9 0,-1.1 0,-2.3 0,-3.5 z"
         id="path79"
         inkscape:connector-curvature="0"
         style="fill:#fd4701" /><path
         d="m 438.8,348.8 c 0,1.2 0,2.4 0,3.6 -2.4,0 -4.8,0 -7.1,0 1.1,-2.1 3.6,-2.4 5.2,-3.9 0.6,0.1 1.2,0.2 1.9,0.3 z"
         id="path81"
         inkscape:connector-curvature="0"
         style="fill:#fe7101" /><path
         d="m 350.7,272.7 c 2.7,0.6 2.2,4.7 5.4,4.8 -1,0.7 -2,1.5 -3,2.2 -0.8,-0.4 -1.6,-0.7 -2.3,-1.1 -0.1,-2 -0.1,-3.9 -0.1,-5.9 z"
         id="path83"
         inkscape:connector-curvature="0"
         style="fill:#0a0000" /><path
         d="m 361.4,262 c 0,2 0,3.9 0,5.9 -0.4,0 -0.8,0 -1.3,0 -1.1,-1.9 -1.1,-3.9 -1.1,-6 0.8,0.1 1.6,0.1 2.4,0.1 z"
         id="path85"
         inkscape:connector-curvature="0"
         style="fill:#e61000" /><path
         d="m 382.8,352.4 c 0.1,-1.6 0.2,-3.2 0.3,-4.9 2.1,1 2.1,3 2.1,4.9 -0.8,0 -1.6,0 -2.4,0 z"
         id="path87"
         inkscape:connector-curvature="0"
         style="fill:#cc0200" /><path
         d="m 375.7,352.4 c 0,-1.6 0.4,-3.1 2.2,-3.7 0,1.2 0.1,2.4 0.1,3.7 -0.7,0 -1.5,0 -2.3,0 z"
         id="path89"
         inkscape:connector-curvature="0"
         style="fill:#670000" /><path
         d="m 426.9,262 c -0.8,0.9 -1.6,0.9 -2.4,0 0.8,0 1.6,0 2.4,0 z"
         id="path91"
         inkscape:connector-curvature="0"
         style="fill:#cc0200" /><path
         d="m 408,276.1 c 0,-1.2 0,-2.4 0.1,-3.6 1.1,0.3 2.3,0.9 3.4,0.8 4.9,-0.4 7.9,0.2 4,5.8 -0.4,0.6 0.6,2.1 1,3.1 -1.6,5.7 2.9,7.2 6.4,9.5 0,0.7 -0.1,1.4 -0.1,2.2 -3.7,0.2 -4.1,3.1 -4.6,5.8 -0.4,2.4 1.2,2.5 2.9,2.6 -0.1,0.8 -0.1,1.6 -0.2,2.4 -0.4,0.7 -0.9,1.5 -1.3,2.2 -2.3,0.7 -3.3,2.4 -3.2,4.8 -4.1,-3 -2.7,-7.1 -2,-10.8 1.7,-9.3 0.7,-17.8 -6.4,-24.8 l 0,0 z"
         id="path93"
         inkscape:connector-curvature="0"
         style="fill:#cc0200" /><path
         d="m 430.3,280.8 c 0.8,1.3 1.7,2.5 2.5,3.8 -7.1,2.2 -9.2,1.2 -10.6,-5 3.4,-4 5.3,1.5 8.1,1.2 z"
         id="path95"
         inkscape:connector-curvature="0"
         style="fill:#a60000" /><path
         d="m 440.1,293.4 c -4.1,3.8 -0.4,8.4 -1.2,12.5 -5.5,-3.1 -5.6,-7.7 -3.7,-13 1.7,0.2 3.3,0.4 4.9,0.5 z"
         id="path97"
         inkscape:connector-curvature="0"
         style="fill:#350000" /><path
         d="m 430.3,280.8 c -2.8,0.3 -4.7,-5.2 -8.1,-1.2 -0.3,0 -0.7,0 -1,-0.1 0.3,-6.5 6,-4 9.3,-5.6 4.5,2.4 -1.5,4.6 -0.2,6.9 z"
         id="path99"
         inkscape:connector-curvature="0"
         style="fill:#cc0200" /><path
         d="m 381.7,340.2 c -1.6,-0.9 -2.6,-2.1 -2.5,-4 0.1,-2 0.1,-4 0.2,-5.9 1.3,-0.2 2.6,0 3.6,0.9 0,2.1 1.2,3.5 3.2,3.2 4.2,-0.6 8.5,-1.1 12.3,-3.3 0.7,-0.2 1.4,-0.4 2.1,-0.6 1.6,0.1 3.3,0.3 4.9,0.4 0.4,0.4 0.7,0.8 1.1,1.3 1.1,2.9 3.5,4.5 6,6 0.4,0.8 0.8,1.5 1.2,2.3 -0.4,0.4 -0.9,0.8 -1.3,1.3 -7,-0.5 -14.2,0.8 -20.6,-3.7 -1.8,-1.2 -2.7,0.1 -3.3,1.9 -0.8,2.4 -0.9,4.9 -0.3,9.3 -2.7,-4.2 -1.9,-9 -6.6,-9.1 z"
         id="path101"
         inkscape:connector-curvature="0"
         style="fill:#fd4701" /><path
         d="m 412.5,341.7 c 0.4,-0.4 0.9,-0.8 1.3,-1.3 2.3,-0.1 4,-0.9 4.7,-3.4 0.8,-2.7 2.7,-2.3 4.6,-1.3 0,1.2 0.1,2.3 0.1,3.5 -3.1,2.5 -5.8,6.1 -10.6,3.5 0,-0.3 -0.1,-0.6 -0.1,-1 z"
         id="path103"
         inkscape:connector-curvature="0"
         style="fill:#fd8b01" /><path
         d="m 419.5,307 c 0.4,-0.7 0.9,-1.5 1.3,-2.2 2.4,0.8 2.9,4.3 6.6,4.2 -1.1,-3.6 -0.5,-8.1 -6.5,-6.5 -1.7,-0.1 -3.3,-0.3 -2.9,-2.6 0.5,-2.8 0.9,-5.6 4.6,-5.8 3.6,3.9 9.3,6.3 8.1,13.5 -0.4,2.5 -0.4,3.3 -2.9,3.3 -3.6,0 -2.8,2.4 -2.2,4.5 -2.5,0.6 -4.3,-0.8 -6.1,-2.1 0.1,-2.2 0,-4.3 0,-6.3 z"
         id="path105"
         inkscape:connector-curvature="0"
         style="fill:#8e0000" /><path
         d="m 437.6,320.5 c -4.1,0.3 -6.6,-2.7 -9.6,-4.7 6.4,-2.5 7,-2.3 9.6,4.7 z"
         id="path107"
         inkscape:connector-curvature="0"
         style="fill:#8e0000" /><path
         d="m 360.2,333.3 c 2.1,-1.4 2.8,0.1 3.4,1.7 -1.7,0.8 -2.6,-0.3 -3.4,-1.7 z"
         id="path109"
         inkscape:connector-curvature="0"
         style="fill:#350000" /><path
         d="m 367.4,335 c 2.7,-1.9 3.1,0 3.3,2.1 -1.1,-0.7 -2.2,-1.4 -3.3,-2.1 z"
         id="path111"
         inkscape:connector-curvature="0"
         style="fill:#350000" /><path
         d="m 403.6,273.2 c 0.6,0.8 1.2,1.6 1.8,2.4 -0.3,1.7 -0.5,3.3 -0.8,5 -4.1,-0.2 -1.3,-6.2 -6.2,-6.6 3,7 -0.5,13 -2,19.4 -0.4,1.5 -1,3.3 0.5,4.3 1.7,1.2 2.7,-1 4,-1.5 0.1,1.2 0.2,2.3 0.3,3.5 -0.8,3.6 1.2,5.8 3.8,7.6 0,0 0.3,0.2 0.3,0.2 1.2,2.2 2.2,4.6 4.7,5.7 0.6,1 1.2,2.1 1.8,3.1 0,3.5 -3.7,6.1 -2.3,10 l -0.2,0.2 c -2,-0.2 -3.5,-1.3 -4.7,-2.7 0.2,-0.7 0.4,-1.4 0.5,-2.1 2.3,-2.7 0.5,-4 -1.7,-5.2 0,0 0,-0.1 0,-0.1 -0.4,-0.8 -0.7,-2.4 -1.2,-2.4 -6.9,-0.6 -7.6,-5.4 -7.5,-10.7 0,-1.1 0.1,-2.2 0.1,-3.3 -1.6,-3.1 -2.6,-6.4 -2.8,-9.8 0.7,-1.4 1.4,-2.7 2.1,-4.1 2.7,-1.1 3.6,-2.9 2.1,-5.6 -1.4,-2.5 -1.2,-5.3 -1.3,-8 0.7,-1.5 1.4,-3 2.1,-4.5 4.4,-1.3 3.5,4.5 6.6,5.2 z"
         id="path113"
         inkscape:connector-curvature="0"
         style="fill:#fef10d" /><path
         d="m 393.9,286.2 c -0.7,1.4 -1.4,2.7 -2.1,4.1 -1.6,0.5 -3.1,1 -4.7,1.5 -5,-6.5 -5.4,-6.5 -9.3,-0.1 -1.9,-1 -3.5,-0.7 -4.5,1.3 -1.6,-0.3 -3.2,-0.5 -4.8,-0.8 0,-1 0,-1.9 0.1,-2.9 2.1,-0.4 5.5,1.2 5.9,-2.2 0.3,-3 -3.2,-2.9 -5.3,-3.7 -0.2,-0.1 -0.4,-0.1 -0.6,-0.1 0.3,-1.7 -0.4,-4 2.6,-4.2 2.3,-0.2 1.3,-1.7 1,-2.9 3.2,0.3 5.8,-6.9 9.6,-0.8 -0.3,1.1 -1,1.6 -2.1,1.4 -1.2,-0.2 -2.4,-0.3 -2.9,1.1 -0.6,1.6 0.7,2.5 1.6,3.4 1,1 2.2,1.9 3.5,0.8 1.1,-1 1.9,-2.4 2.8,-3.6 3.2,-1.3 4.6,3.4 7.7,2.4 1.4,1.5 1.1,3.5 1.5,5.3 z"
         id="path115"
         inkscape:connector-curvature="0"
         style="fill:#fe5301" /><path
         d="m 372.1,276.3 c 0.4,1.2 1.3,2.8 -1,2.9 -3,0.2 -2.3,2.4 -2.6,4.2 -2,-0.4 -2.3,-1.9 -2.5,-3.6 -1.6,-3.1 4.2,-8.2 -2.7,-9.8 l -0.4,-0.2 c 1.1,-2.2 0.6,-5.8 4.6,-5.8 0.2,0.1 0.5,0.2 0.7,0.4 0.3,2.9 -0.3,6.2 3.7,7.2 0,0 0,0 0,0 0.2,1.5 0.2,3.1 0.2,4.7 z"
         id="path117"
         inkscape:connector-curvature="0"
         style="fill:#fe7101" /><path
         d="m 384.7,278.6 c -0.9,1.2 -1.7,2.6 -2.8,3.6 -1.3,1.1 -2.5,0.2 -3.5,-0.8 -1,-0.9 -2.2,-1.8 -1.6,-3.4 0.5,-1.4 1.7,-1.3 2.9,-1.1 1.1,0.2 1.8,-0.3 2.1,-1.4 1.5,0.4 2.7,1.2 2.9,3.1 z"
         id="path119"
         inkscape:connector-curvature="0"
         style="fill:#feb500" /><path
         d="m 393.9,286.2 c -0.4,-1.8 -0.1,-3.7 -1.6,-5.2 0.4,-2.9 -3.6,-7 2.3,-8.4 0.1,2.7 -0.1,5.5 1.3,8 1.6,2.7 0.7,4.5 -2,5.6 z"
         id="path121"
         inkscape:connector-curvature="0"
         style="fill:#fd8b01" /><path
         d="m 418.6,314 c 1.8,8.4 8.9,10.4 15.6,12.9 -1,1.7 -2.7,3.1 -2.8,5.3 -1.5,0.4 -2.9,0.7 -4.4,1.1 -0.9,-2.4 -2.9,-2.3 -4.9,-2.4 0,-2.5 -1.5,-3.8 -3.6,-4.7 -0.1,-2.8 0.7,-5.8 -1.2,-8.3 -0.1,-1.1 -0.3,-2.1 -0.4,-3.2 0.2,-0.3 0.5,-0.5 0.7,-0.8 0.4,0 0.7,0.1 1,0.1 z"
         id="path123"
         inkscape:connector-curvature="0"
         style="fill:#f82400" /><path
         d="m 431.4,332.2 c 0,-2.2 1.7,-3.6 2.8,-5.3 1.9,0.2 3.7,0.3 5.6,0.5 0.6,3.9 0.4,7.4 -4.5,8.5 -2.1,-0.4 -2.5,-2.6 -3.9,-3.7 z"
         id="path125"
         inkscape:connector-curvature="0"
         style="fill:#fe7101" /><path
         d="m 418.6,314 c -0.3,0 -0.6,-0.1 -0.9,-0.1 -0.5,-0.7 -0.9,-1.5 -1.4,-2.2 -0.1,-2.4 0.8,-4 3.2,-4.8 0.1,2.1 0.1,4.2 0.2,6.3 -0.4,0.3 -0.8,0.6 -1.1,0.8 z"
         id="path127"
         inkscape:connector-curvature="0"
         style="fill:#a60000" /><path
         d="m 367.4,326.1 c 0,-1.1 -0.1,-2.2 -0.1,-3.3 0.5,-0.5 1,-1.1 1.5,-1.6 1.1,0.1 2.3,0.1 3.4,0.2 0.1,1.6 0.1,3.2 0.2,4.8 -1.3,0.1 -2.6,0.2 -4,0.3 -0.4,-0.1 -0.7,-0.2 -1,-0.4 z"
         id="path129"
         inkscape:connector-curvature="0"
         style="fill:#cc0200" /><path
         d="m 372.1,271.5 c -4,-0.9 -3.4,-4.3 -3.7,-7.2 4.3,0.9 3.6,4.2 3.7,7.2 z"
         id="path131"
         inkscape:connector-curvature="0"
         style="fill:#f82400" /><path
         d="m 431.4,332.2 c 1.4,1.1 1.8,3.3 3.9,3.7 -0.3,1.6 3.3,3 0.1,4.6 -1.1,-0.9 -2,-0.8 -2.7,0.5 -0.9,0.1 -1.8,0.3 -2.7,0.4 -2.7,0.5 -4.7,-0.8 -6.8,-2.2 0,-1.2 -0.1,-2.3 -0.1,-3.5 1.3,-0.8 2.6,-1.6 3.9,-2.5 1.5,-0.3 2.9,-0.6 4.4,-1 z"
         id="path133"
         inkscape:connector-curvature="0"
         style="fill:#fe3601" /><path
         d="m 432.7,341.1 c 0.7,-1.4 1.6,-1.4 2.7,-0.5 -0.1,0.4 -0.3,0.9 -0.5,1.3 -0.7,-0.3 -1.5,-0.6 -2.2,-0.8 z"
         id="path135"
         inkscape:connector-curvature="0"
         style="fill:#fe5301" /><path
         d="m 372.1,321.4 c -1.1,-0.1 -2.3,-0.1 -3.4,-0.2 -0.8,-1.5 -1.7,-3 -2.5,-4.5 0,-0.8 0.1,-1.6 0.1,-2.3 0.4,-0.4 0.8,-0.8 1.1,-1.1 1.9,-2.1 0.5,-4.9 1.7,-7.2 0,0 0.3,-0.1 0.3,-0.1 l 0.4,0 c 1.9,3 -0.2,8 4.7,9.6 2.4,2.4 4.4,6.5 8.6,2.3 1.6,0.3 2.7,1.2 3.4,2.6 0,0.3 0,0.7 -0.1,1 -4.8,0.9 -9.5,0.9 -14.3,-0.1 z"
         id="path137"
         inkscape:connector-curvature="0"
         style="fill:#fd4701" /><path
         d="m 369.1,306 c -1.1,2.3 0.2,5.1 -1.7,7.2 -2.9,-4.2 -3,-10.6 -9.4,-12.1 -0.1,-0.7 -0.2,-1.5 -0.3,-2.2 5.4,-2.3 4,-8.2 6.3,-12.1 0.4,0 0.8,0.1 1.2,0.1 -0.1,0.8 -0.3,1.6 -0.4,2.4 -1.1,5.1 -3.2,10.4 2.5,14.4 0.6,0.3 1.1,0.5 1.7,0.8 0.1,0.5 0.1,1 0.1,1.5 z"
         id="path139"
         inkscape:connector-curvature="0"
         style="fill:#e61000" /><path
         d="m 366.3,314.3 c 0,0.8 -0.1,1.6 -0.1,2.3 -0.8,0 -1.5,0 -2.3,0.1 -0.8,0 -1.7,0 -2.5,0 -0.4,0 -0.7,0 -1.1,0 -0.4,-1.2 -1.5,-2.5 -0.3,-3.7 1.1,-1.1 2,-0.1 3.1,0.4 1,0.4 2.1,0.6 3.2,0.9 z"
         id="path141"
         inkscape:connector-curvature="0"
         style="fill:#e61000" /><path
         d="m 364.1,286.8 c -2.3,3.9 -0.9,9.8 -6.3,12.1 -0.8,0 -1.5,-0.1 -2.3,-0.1 -0.2,-1.4 0.2,-2.5 1.3,-3.4 1,-1.7 6.7,-2.3 1.3,-5.5 -0.8,-0.5 -0.7,-1.4 -0.2,-2.1 4.6,-6.2 1.5,-13.3 2.3,-19.9 0.4,0 0.8,0 1.3,0 0.5,0.6 1,1.3 1.5,1.9 0,0 0.4,0.2 0.4,0.2 -1.4,3.5 0.5,6.7 0.6,10.1 0.1,2.2 0.1,4.5 0.1,6.7 z"
         id="path143"
         inkscape:connector-curvature="0"
         style="fill:#cc0200" /><path
         d="m 372.1,321.4 c 4.7,1 9.5,1 14.3,0.1 0.1,0.7 0.3,1.4 0.4,2.1 -0.5,1.6 -1.2,3 -2.7,3.9 -1.4,-1.1 -2.6,-3.8 -4.6,-2.6 -1.8,1.1 0.1,3.5 -0.1,5.3 -0.1,2 -0.1,4 -0.2,5.9 -0.8,-0.5 -1.6,-1 -2.5,-1.5 0.2,-2 -0.3,-3.8 -2.2,-4.9 -0.7,-1.2 -1.5,-2.4 -2.2,-3.6 -0.1,-1.5 -0.1,-3.1 -0.2,-4.7 z"
         id="path145"
         inkscape:connector-curvature="0"
         style="fill:#f82400" /><path
         d="m 374.5,329.7 c 1.9,1.1 2.4,2.9 2.2,4.9 -2.3,-0.9 -2.1,-2.9 -2.2,-4.9 z"
         id="path147"
         inkscape:connector-curvature="0"
         style="fill:#cc0200" /><path
         d="m 378.3,347.8 c 0.1,-1.3 0.1,-2.7 0.2,-4 2.2,1.5 2.1,2.8 -0.2,4 z"
         id="path149"
         inkscape:connector-curvature="0"
         style="fill:#670000" /><path
         d="m 361.4,316.7 c 0.8,0 1.7,0 2.5,0 0.4,2 0.8,3.9 1.2,5.9 -1.4,2 -3.2,3 -5.3,1.2 -1.9,-1.6 0.5,-2.6 0.9,-3.9 0.2,-1 0.4,-2.1 0.7,-3.2 z"
         id="path151"
         inkscape:connector-curvature="0"
         style="fill:#cc0200" /><path
         d="m 365.1,322.6 c -0.4,-2 -0.8,-3.9 -1.2,-5.9 0.8,0 1.5,0 2.3,-0.1 0.8,1.5 1.7,3 2.5,4.5 -0.5,0.5 -1,1.1 -1.5,1.6 -0.7,0.1 -1.4,0 -2.1,-0.1 z"
         id="path153"
         inkscape:connector-curvature="0"
         style="fill:#f82400" /><path
         d="m 404.5,280.6 c 0.3,-1.7 0.5,-3.3 0.8,-5 0.9,0.2 1.8,0.3 2.6,0.5 0,0 0,0.1 0,0.1 -0.1,1.4 -0.1,2.9 -0.2,4.3 -0.8,0 -1.6,0 -2.3,0.1 -0.3,-0.2 -0.6,-0.1 -0.9,0 l 0,0 z"
         id="path155"
         inkscape:connector-curvature="0"
         style="fill:#fe5301" /><path
         d="m 407.7,280.5 c 0.1,-1.4 0.1,-2.9 0.2,-4.3 7.2,6.9 8.1,15.4 6.4,24.7 -0.7,3.7 -2.1,7.9 2,10.8 0.5,0.7 0.9,1.5 1.4,2.2 -0.2,0.2 -0.5,0.5 -0.7,0.7 -2.5,-0.4 -3.9,-2.5 -5.8,-3.9 -0.1,-0.7 -0.1,-1.5 -0.2,-2.2 0.4,-5.2 -2.6,-10.4 -0.4,-15.7 0.1,-0.2 -0.7,-0.9 -1.1,-1.3 -0.9,-0.8 -1.8,-1.6 -2.8,-2.4 0,-0.8 0,-1.5 0.1,-2.3 0.4,0 0.8,0 1.2,0 1.4,-0.5 2,-1.5 1.7,-3 0.1,-1.4 -0.5,-2.5 -2,-3.3 z"
         id="path157"
         inkscape:connector-curvature="0"
         style="fill:#f82400" /><path
         d="m 421,302.4 c 6,-1.5 5.4,3 6.5,6.5 -3.7,0.2 -4.3,-3.3 -6.6,-4.2 0,-0.7 0,-1.5 0.1,-2.3 z"
         id="path159"
         inkscape:connector-curvature="0"
         style="fill:#670000" /><path
         d="m 386.8,323.5 c -0.1,-0.7 -0.3,-1.4 -0.4,-2.1 0.1,-0.3 0.1,-0.7 0.1,-1 1.4,-0.2 2.8,-0.5 4.3,-0.7 1.8,0.7 2.7,2.1 2.8,4 -0.5,3.8 1.7,5.9 4.9,7.3 -3.8,2.2 -8.1,2.6 -12.3,3.3 -2,0.3 -3.2,-1.1 -3.2,-3.2 0.4,-0.4 0.7,-0.9 1.1,-1.3 2.3,-0.6 5.7,1.2 6.7,-2.2 0.7,-2.7 -1.8,-3.5 -4,-4.1 z"
         id="path161"
         inkscape:connector-curvature="0"
         style="fill:#fd8b01" /><path
         d="m 427,333.3 c -1.3,0.8 -2.6,1.6 -3.9,2.5 -1.9,-1 -3.8,-1.4 -4.6,1.3 -0.7,2.5 -2.4,3.3 -4.7,3.4 -0.4,-0.8 -0.8,-1.5 -1.2,-2.3 1.8,-1.6 -5.5,-6.8 2.4,-6 2.7,1.2 5,0.5 7.2,-1.3 1.9,0 4,0 4.8,2.4 z"
         id="path163"
         inkscape:connector-curvature="0"
         style="fill:#fe5301" /><path
         d="m 398.4,331.1 c -3.1,-1.4 -5.4,-3.5 -4.9,-7.3 2.3,1 4.3,3 7.1,2.4 0.8,-0.8 1.6,-1.5 2.4,-2.3 0.5,0 0.9,0 1.4,0 1.3,1.4 2.8,2.5 4.7,2.7 -1.3,1.7 -0.1,4.5 -2.6,5.7 -0.4,-0.4 -0.7,-0.8 -1.1,-1.3 -1.5,-2.1 -3,-3.1 -4.9,-0.4 -0.7,0.1 -1.4,0.3 -2.1,0.5 z"
         id="path165"
         inkscape:connector-curvature="0"
         style="fill:#feb500" /><path
         d="m 406.6,332.2 c 2.5,-1.1 1.3,-4 2.6,-5.7 0,0 0.2,-0.2 0.2,-0.2 2.3,0 4.7,0 7,0 -0.5,1.9 -0.9,3.8 -1.4,5.7 -7.8,-0.7 -0.5,4.4 -2.4,6 -2.5,-1.3 -4.9,-2.9 -6,-5.8 z"
         id="path167"
         inkscape:connector-curvature="0"
         style="fill:#fd8b01" /><path
         d="m 384,329.8 c -0.4,0.4 -0.7,0.9 -1.1,1.3 -1,-1 -2.2,-1.1 -3.6,-0.9 0.2,-1.8 -1.7,-4.2 0.1,-5.3 2,-1.2 3.2,1.4 4.6,2.6 0.1,0.7 0,1.5 0,2.3 z"
         id="path169"
         inkscape:connector-curvature="0"
         style="fill:#e61000" /><path
         d="m 400.5,330.5 c 1.9,-2.7 3.5,-1.7 4.9,0.4 -1.6,-0.1 -3.2,-0.2 -4.9,-0.4 z"
         id="path171"
         inkscape:connector-curvature="0"
         style="fill:#fd8b01" /><path
         d="m 404.4,323.8 c -0.5,0 -0.9,0 -1.4,0 -2.5,-1 -2.1,1 -2.4,2.3 -2.8,0.6 -4.8,-1.4 -7.1,-2.4 -0.1,-1.9 -1,-3.3 -2.8,-4 2.9,-3.5 -1.9,-5 -2.1,-7.8 1.1,-6.6 -4.4,-2.6 -6.6,-4 -1.3,-0.9 -3.5,-1.3 -4.6,0.7 -1,1.9 0.3,3.3 1.7,4.4 0.1,2.5 2.4,3.3 3.9,4.7 -4.2,4.2 -6.2,0.1 -8.6,-2.3 0,-3.5 0.1,-7 0.1,-10.5 1.4,-0.1 2.8,-0.2 4.2,-0.3 2.3,0 4.6,-0.1 6.9,0.1 2.2,0.2 4.9,-2.4 6.6,1 -0.4,8.4 1.9,10.7 10.9,10.7 0,0 0,0.1 0,0.1 0.6,1.7 1.2,3.5 1.7,5.2 0,0.7 -0.2,1.4 -0.4,2.1 z"
         id="path173"
         inkscape:connector-curvature="0"
         style="fill:#fe7101" /><path
         d="m 392.3,305.8 c -1.7,-3.4 -4.4,-0.9 -6.6,-1 -2.3,-0.2 -4.6,-0.1 -6.9,-0.1 0.2,-1.1 0.5,-2.3 0.7,-3.4 2.3,-0.8 2.3,-2.7 1.9,-4.6 2,-0.9 4,-1.7 6.1,-2.6 3.3,0.9 3.2,5.9 7.1,6 0,1.1 -0.1,2.2 -0.1,3.3 -0.7,0.8 -1.4,1.6 -2.2,2.4 z"
         id="path175"
         inkscape:connector-curvature="0"
         style="fill:#fe5301" /><path
         d="m 400.8,296.2 c -1.4,0.5 -2.3,2.7 -4,1.5 -1.5,-1 -0.9,-2.8 -0.5,-4.3 1.5,-6.3 5,-12.4 2,-19.4 5,0.3 2.1,6.3 6.2,6.6 0,0 0,0.1 0,0.1 0.3,1 0.5,1.9 0.8,2.9 0,0.7 0,1.3 0,2 -3,2.8 -3,6.9 -4.5,10.4 l 0,0.2 z"
         id="path177"
         inkscape:connector-curvature="0"
         style="fill:#fefe38" /><path
         d="m 400.8,296.2 c 0,0 -0.1,-0.3 -0.1,-0.3 1.2,-0.6 2.3,-1.2 3.5,-1.9 1.8,-0.8 3.5,-1.6 5.3,-2.4 0.4,0.4 1.2,1.1 1.1,1.3 -2.3,5.3 0.8,10.4 0.4,15.7 -1.9,-0.6 -3.7,-1.6 -5.7,-1 0,0 -0.3,-0.2 -0.3,-0.2 2.5,-4.5 -2.2,-5.3 -3.8,-7.6 -0.2,-1.2 -0.3,-2.4 -0.4,-3.6 z"
         id="path179"
         inkscape:connector-curvature="0"
         style="fill:#fe7101" /><path
         d="m 416.3,326.4 c -2.3,0 -4.7,0 -7,0 -1.4,-3.8 2.3,-6.5 2.3,-10 1.1,0.5 2.2,0.9 3.3,1.4 1.9,2.7 -0.6,6 1.4,8.6 l 0,0 z"
         id="path181"
         inkscape:connector-curvature="0"
         style="fill:#feb500" /><path
         d="m 392.3,305.8 c 0.7,-0.8 1.5,-1.6 2.2,-2.4 -0.1,5.3 0.6,10.2 7.5,10.7 0.5,0 0.8,1.6 1.2,2.4 -8.9,0 -11.3,-2.3 -10.9,-10.7 z"
         id="path183"
         inkscape:connector-curvature="0"
         style="fill:#feb500" /><path
         d="m 394.6,300.1 c -4,-0.1 -3.8,-5.1 -7.1,-6 -0.1,-0.8 -0.2,-1.5 -0.3,-2.3 1.6,-0.5 3.1,-1 4.7,-1.5 0.2,3.4 1.2,6.7 2.7,9.8 z"
         id="path185"
         inkscape:connector-curvature="0"
         style="fill:#fd8b01" /><path
         d="m 415,317.8 c -1.1,-0.5 -2.2,-0.9 -3.3,-1.4 -0.6,-1 -1.2,-2.1 -1.8,-3.1 0.4,-0.8 0.8,-1.7 1.2,-2.5 1.9,1.4 3.3,3.5 5.8,3.9 0.1,1.1 0.3,2.1 0.4,3.2 -0.8,0 -1.5,0 -2.3,-0.1 z"
         id="path187"
         inkscape:connector-curvature="0"
         style="fill:#fe7101" /><path
         d="m 411.1,310.8 c -0.4,0.8 -0.8,1.7 -1.2,2.5 -2.5,-1.2 -3.5,-3.5 -4.7,-5.7 2.1,-0.6 3.9,0.4 5.7,1 0.1,0.7 0.2,1.5 0.2,2.2 z"
         id="path189"
         inkscape:connector-curvature="0"
         style="fill:#feb500" /><path
         d="m 401.1,299.7 c 1.7,2.3 6.4,3.2 3.8,7.6 -2.6,-1.8 -4.6,-4 -3.8,-7.6 z"
         id="path191"
         inkscape:connector-curvature="0"
         style="fill:#feb500" /><path
         d="m 405,321.7 c -0.6,-1.7 -1.2,-3.5 -1.7,-5.2 2.1,1.2 4,2.6 1.7,5.2 z"
         id="path193"
         inkscape:connector-curvature="0"
         style="fill:#feb500" /><path
         d="m 379.5,301.3 c -0.2,1.1 -0.5,2.3 -0.7,3.4 -1.4,0.1 -2.8,0.2 -4.2,0.3 -1.6,0.3 -3.2,0.6 -4.8,0.9 l -0.4,0 c 0,0 -0.3,0.1 -0.3,0.1 0,-0.5 0,-1 -0.1,-1.6 0.7,-2.5 1.3,-5 -1.4,-6.9 -0.8,-1.9 -0.7,-3.7 0.8,-5.3 1.6,0.3 3.2,0.5 4.8,0.8 1.7,3.1 3.7,5.9 6.3,8.3 z"
         id="path195"
         inkscape:connector-curvature="0"
         style="fill:#feb500" /><path
         d="m 387.2,291.8 c 0.1,0.8 0.2,1.5 0.3,2.3 -2,0.9 -4,1.7 -6.1,2.6 -0.3,0 -0.7,-0.1 -1,-0.1 -0.2,-1.2 -0.9,-2.1 -2,-2.6 -0.2,-0.8 -0.4,-1.5 -0.6,-2.3 3.9,-6.4 4.3,-6.4 9.4,0.1 z"
         id="path197"
         inkscape:connector-curvature="0"
         style="fill:#fe3601" /><path
         d="m 364.1,286.8 c 0,-2.3 0,-4.5 0,-6.8 0.7,-0.1 1.4,-0.2 2.1,-0.3 0.1,1.7 0.5,3.2 2.5,3.6 0.2,0 0.4,0 0.6,0.1 2.1,0.8 5.6,0.7 5.3,3.7 -0.3,3.3 -3.8,1.7 -5.9,2.2 0,0 0,0 0,0 -0.4,-1.7 -1.7,-2.3 -3.3,-2.4 -0.5,0 -0.9,-0.1 -1.3,-0.1 z"
         id="path199"
         inkscape:connector-curvature="0"
         style="fill:#fd4701" /><path
         d="m 368.5,292.2 c -1.5,1.6 -1.6,3.4 -0.8,5.3 -0.1,2 -0.2,4.1 -0.3,6.1 -5.7,-4 -3.6,-9.2 -2.5,-14.4 1.2,0 2.5,0 3.7,0 0,0 0,0 0,0 -0.1,1.1 -0.1,2.1 -0.1,3 z"
         id="path201"
         inkscape:connector-curvature="0"
         style="fill:#fd4701" /><path
         d="m 377.8,291.7 c 0.2,0.8 0.4,1.5 0.6,2.3 0,1.4 0.7,2.2 2,2.6 0.3,0.1 0.7,0.1 1,0.1 0.4,1.9 0.4,3.7 -1.9,4.6 -2.6,-2.4 -4.6,-5.1 -6.2,-8.3 1.1,-2 2.6,-2.3 4.5,-1.3 z"
         id="path203"
         inkscape:connector-curvature="0"
         style="fill:#fd8b01" /><path
         d="m 366.1,279.8 c -0.7,0.1 -1.4,0.2 -2.1,0.3 -0.1,-3.4 -2,-6.6 -0.6,-10.1 6.9,1.6 1.1,6.7 2.7,9.8 z"
         id="path205"
         inkscape:connector-curvature="0"
         style="fill:#f82400" /><path
         d="m 414.9,332.1 c 0.5,-1.9 0.9,-3.8 1.4,-5.7 0,0 0,-0.1 0,-0.1 0.7,-0.1 1.4,-0.1 2.2,-0.2 2.1,0.9 3.6,2.2 3.6,4.7 -2.1,1.8 -4.5,2.6 -7.2,1.3 z"
         id="path207"
         inkscape:connector-curvature="0"
         style="fill:#fe3601" /><path
         d="m 418.6,326.2 c -0.7,0.1 -1.4,0.1 -2.2,0.2 -2.1,-2.6 0.5,-5.9 -1.4,-8.5 0.8,0 1.6,0 2.3,0 2,2.5 1.1,5.5 1.3,8.3 z"
         id="path209"
         inkscape:connector-curvature="0"
         style="fill:#fd8b01" /><path
         d="m 388.7,312 c 0.2,2.7 5,4.2 2.1,7.8 -1.4,0.2 -2.8,0.5 -4.3,0.7 -0.7,-1.4 -1.9,-2.3 -3.4,-2.6 -1.5,-1.4 -3.7,-2.2 -3.9,-4.7 2.9,-2.9 6.2,-1.8 9.5,-1.2 z"
         id="path211"
         inkscape:connector-curvature="0"
         style="fill:#fe3601" /><path
         d="m 369.8,305.9 c 1.6,-0.3 3.2,-0.6 4.8,-0.9 0,3.5 -0.1,7 -0.1,10.5 -4.9,-1.5 -2.8,-6.5 -4.7,-9.6 z"
         id="path213"
         inkscape:connector-curvature="0"
         style="fill:#fd8b01" /><path
         d="m 367.4,303.7 c 0.1,-2 0.2,-4.1 0.3,-6.1 2.7,1.8 2.1,4.4 1.4,6.9 -0.6,-0.3 -1.2,-0.6 -1.7,-0.8 z"
         id="path215"
         inkscape:connector-curvature="0"
         style="fill:#fd8b01" /><path
         d="m 368.6,289.3 c -1.2,0 -2.5,0 -3.7,0 0.1,-0.8 0.3,-1.6 0.4,-2.4 1.6,0.1 2.8,0.7 3.3,2.4 z"
         id="path217"
         inkscape:connector-curvature="0"
         style="fill:#fe5301" /><path
         d="m 384,329.8 c 0,-0.8 0,-1.6 0,-2.4 1.6,-0.8 2.2,-2.3 2.7,-3.9 2.2,0.6 4.7,1.3 3.9,4.1 -0.9,3.4 -4.3,1.6 -6.6,2.2 z"
         id="path219"
         inkscape:connector-curvature="0"
         style="fill:#fe5301" /><path
         d="m 405.3,285.5 c 0,-0.7 0,-1.3 0,-2 0,-1 0.1,-2 0.1,-3 0.8,0 1.6,0 2.3,-0.1 1.4,0.7 2.1,1.9 1.9,3.5 -1,0.7 -1.7,1.7 -1.7,3 -0.4,0 -0.8,0 -1.2,0 -0.4,-0.4 -0.9,-0.9 -1.4,-1.4 z"
         id="path221"
         inkscape:connector-curvature="0"
         style="fill:#feb500" /><path
         d="m 405.4,280.6 c 0,1 -0.1,2 -0.1,3 -0.3,-1 -0.5,-1.9 -0.8,-2.9 0.3,-0.2 0.6,-0.3 0.9,-0.1 z"
         id="path223"
         inkscape:connector-curvature="0"
         style="fill:#fef10d" /><path
         d="m 405.3,285.5 c 0.5,0.5 1,1 1.6,1.5 0,0.8 0,1.5 -0.1,2.3 -1.6,1.2 -2.1,3 -2.5,4.8 -1.2,0.6 -2.3,1.2 -3.5,1.9 1.5,-3.5 1.4,-7.7 4.5,-10.5 z"
         id="path225"
         inkscape:connector-curvature="0"
         style="fill:#fef10d" /><path
         d="m 404.2,294.1 c 0.4,-1.8 0.9,-3.6 2.5,-4.8 0.9,0.8 1.8,1.6 2.8,2.4 -1.7,0.8 -3.5,1.6 -5.3,2.4 z"
         id="path227"
         inkscape:connector-curvature="0"
         style="fill:#feb500" /><path
         d="m 408,287.1 c 0,-1.3 0.6,-2.3 1.7,-3 0.3,1.4 -0.3,2.4 -1.7,3 z"
         id="path229"
         inkscape:connector-curvature="0"
         style="fill:#fe5301" /><path
         d="m 400.7,326.2 c 0.3,-1.3 -0.1,-3.3 2.4,-2.3 -0.8,0.7 -1.6,1.5 -2.4,2.3 z"
         id="path231"
         inkscape:connector-curvature="0"
         style="fill:#fd8b01" /><path
         d="m 388.7,312 c -3.3,-0.6 -6.6,-1.6 -9.5,1.1 -1.4,-1.1 -2.7,-2.5 -1.7,-4.4 1.1,-2 3.3,-1.6 4.6,-0.7 2.2,1.4 7.7,-2.6 6.6,4 z"
         id="path233"
         inkscape:connector-curvature="0"
         style="fill:#fe5301" /><path
         d="m 380.4,296.5 c -1.3,-0.3 -2,-1.2 -2,-2.6 1.2,0.6 1.8,1.4 2,2.6 z"
         id="path235"
         inkscape:connector-curvature="0"
         style="fill:#fe5301" /></g></g></svg>