<?xml version="1.0" encoding="UTF-8" standalone="no"?>
<!-- Generator: Adobe Illustrator 18.1.1, SVG Export Plug-In . SVG Version: 6.00 Build 0)  -->

<svg
   xmlns:dc="http://purl.org/dc/elements/1.1/"
   xmlns:cc="http://creativecommons.org/ns#"
   xmlns:rdf="http://www.w3.org/1999/02/22-rdf-syntax-ns#"
   xmlns:svg="http://www.w3.org/2000/svg"
   xmlns="http://www.w3.org/2000/svg"
   xmlns:sodipodi="http://sodipodi.sourceforge.net/DTD/sodipodi-0.dtd"
   xmlns:inkscape="http://www.inkscape.org/namespaces/inkscape"
   version="1.1"
   id="Layer_1"
   x="0px"
   y="0px"
   viewBox="0 0 88.5 87.5"
   enable-background="new 0 0 792 612"
   xml:space="preserve"
   inkscape:version="0.91 r13725"
   sodipodi:docname="Sign.svg"
   width="88.5"
   height="87.5"><metadata
     id="metadata21"><rdf:RDF><cc:Work
         rdf:about=""><dc:format>image/svg+xml</dc:format><dc:type
           rdf:resource="http://purl.org/dc/dcmitype/StillImage" /><dc:title /></cc:Work></rdf:RDF></metadata><defs
     id="defs19" /><sodipodi:namedview
     pagecolor="#ffffff"
     bordercolor="#666666"
     borderopacity="1"
     objecttolerance="10"
     gridtolerance="10"
     guidetolerance="10"
     inkscape:pageopacity="0"
     inkscape:pageshadow="2"
     inkscape:window-width="1600"
     inkscape:window-height="1138"
     id="namedview17"
     showgrid="false"
     fit-margin-top="0"
     fit-margin-left="0"
     fit-margin-right="0"
     fit-margin-bottom="0"
     inkscape:zoom="5.8181817"
     inkscape:cx="47.781844"
     inkscape:cy="41.09081"
     inkscape:window-x="-8"
     inkscape:window-y="-8"
     inkscape:window-maximized="1"
     inkscape:current-layer="Layer_1" /><g
     id="g3"
     transform="translate(-351,-262.3)"><rect
       x="384.89999"
       y="317.39999"
       width="17.9"
       height="32.299999"
       id="rect5"
       style="fill:#af9768" /><polygon
       points="352.4,264.6 436.9,265.7 438.3,264.5 438.8,319.8 354.3,320.1 351,317.1 351,315.6 "
       id="polygon7"
       style="fill:#77623f" /><polygon
       points="433.2,262.3 354.8,262.5 351,265.8 351,317 436.7,317 436.9,265.6 "
       id="polygon9"
       style="fill:#99835c" /><polygon
       points="439.5,265.6 436.9,262.5 433.2,262.4 436.9,266.6 436.7,317.1 439,318.8 "
       id="polygon11"
       style="fill:#897147" /><polygon
       points="404,318.9 402,318.9 402,349.8 404,348.9 "
       id="polygon13"
       style="fill:#897147" /><rect
       x="384.89999"
       y="318.79999"
       width="19.1"
       height="3"
       id="rect15"
       style="opacity:0.49000005;fill:#897147" /></g><path
     style="fill:#000000;fill-opacity:1;fill-rule:nonzero;stroke:none;stroke-width:1px;stroke-linecap:butt;stroke-linejoin:miter;stroke-opacity:1"
     id="path3400"
     d="m 15.914808,10.299889 c -0.03538,1.250861 -0.04934,2.502623 -0.0249,3.753748 0.04948,1.107468 0.158606,2.220906 0.442845,3.295632 0.111529,0.421701 0.241476,0.758697 0.387345,1.164101 0,0 -2.176687,1.201001 -2.176687,1.201001 l 0,0 c -0.478404,-1.473142 -0.784618,-2.991591 -0.829708,-4.544926 -0.03873,-1.237914 -0.02661,-2.476482 -0.06602,-3.714402 0,0 2.267116,-1.155154 2.267116,-1.155154 z"
     inkscape:connector-curvature="0" /><path
     style="fill:#000000;fill-opacity:1;fill-rule:nonzero;stroke:none;stroke-width:1px;stroke-linecap:butt;stroke-linejoin:miter;stroke-opacity:1"
     id="path3402"
     d="m 11.885011,16.585098 c 1.020801,0.54597 2.053597,1.074006 3.16586,1.411486 0.334235,0.101412 0.675893,0.176521 1.013839,0.264782 1.961299,0.438898 3.970199,0.559382 5.972907,0.619034 0.809943,0.02098 1.620141,0.01448 2.430188,0.0066 0,0 -2.025046,1.471346 -2.025046,1.471346 l 0,0 c -0.794942,-0.0076 -1.589796,-0.02304 -2.384307,-0.0511 -2.004527,-0.08848 -4.012388,-0.234786 -5.974166,-0.682685 -0.346892,-0.09007 -0.697399,-0.167224 -1.040675,-0.270222 -1.142971,-0.342944 -2.199583,-0.889865 -3.2871746,-1.368685 0,0 2.1285746,-1.400526 2.1285746,-1.400526 z"
     inkscape:connector-curvature="0" /><path
     style="fill:#000000;fill-opacity:1;fill-rule:nonzero;stroke:none;stroke-width:1px;stroke-linecap:butt;stroke-linejoin:miter;stroke-opacity:1"
     id="path3404"
     d="m 27.435697,14.159683 c -0.808645,0.695838 -1.615458,1.393741 -2.415195,2.099821 0,0 -2.238757,0.91169 -2.238757,0.91169 l 0,0 c 0.769132,-0.685577 1.544122,-1.364223 2.308874,-2.054563 0,0 2.345078,-0.956948 2.345078,-0.956948 z"
     inkscape:connector-curvature="0" /><path
     style="fill:#000000;fill-opacity:1;fill-rule:nonzero;stroke:none;stroke-width:1px;stroke-linecap:butt;stroke-linejoin:miter;stroke-opacity:1"
     id="path3406"
     d="m 40.411427,15.791937 c 0.340032,0.931416 0.573033,1.898657 0.827519,2.855985 0,0 -2.147639,1.164591 -2.147639,1.164591 l 0,0 c -0.242143,-0.936183 -0.471747,-1.88687 -0.881022,-2.767281 0,0 2.201142,-1.253295 2.201142,-1.253295 z"
     inkscape:connector-curvature="0" /><path
     style="fill:#000000;fill-opacity:1;fill-rule:nonzero;stroke:none;stroke-width:1px;stroke-linecap:butt;stroke-linejoin:miter;stroke-opacity:1"
     id="path3408"
     d="m 34.913013,19.587162 c 1.670132,-1.626224 3.19737,-3.387489 4.711816,-5.156837 0.224474,-0.27009 0.448948,-0.54018 0.673422,-0.810271 0,0 2.211991,-0.938529 2.211991,-0.938529 l 0,0 c -0.234827,0.27556 -0.469654,0.55112 -0.70448,0.82668 -1.496912,1.718859 -2.981511,3.448587 -4.546077,5.106934 0,0 -2.346672,0.972023 -2.346672,0.972023 z"
     inkscape:connector-curvature="0" /><path
     style="fill:#000000;fill-opacity:1;fill-rule:nonzero;stroke:none;stroke-width:1px;stroke-linecap:butt;stroke-linejoin:miter;stroke-opacity:1"
     id="path3410"
     d="m 44.551018,14.556621 c 0.76373,1.227739 1.829475,2.231746 2.888959,3.200969 0,0 -2.067054,1.276348 -2.067054,1.276348 l 0,0 c -1.058797,-1.010449 -2.120444,-2.035667 -3.011111,-3.200758 0,0 2.189206,-1.276559 2.189206,-1.276559 z"
     inkscape:connector-curvature="0" /><path
     style="fill:#000000;fill-opacity:1;fill-rule:nonzero;stroke:none;stroke-width:1px;stroke-linecap:butt;stroke-linejoin:miter;stroke-opacity:1"
     id="path3412"
     d="m 66.283218,16.723661 c -1.510955,1.003428 -3.067145,1.94 -4.615529,2.884915 0,0 -2.208482,0.853621 -2.208482,0.853621 l 0,0 c 1.502474,-0.911938 2.999169,-1.834449 4.471392,-2.794412 0,0 2.352619,-0.944124 2.352619,-0.944124 z"
     inkscape:connector-curvature="0" /><path
     style="fill:#000000;fill-opacity:1;fill-rule:nonzero;stroke:none;stroke-width:1px;stroke-linecap:butt;stroke-linejoin:miter;stroke-opacity:1"
     id="path3414"
     d="m 58.740912,14.354772 c 0.224558,1.072642 0.49438,2.139782 0.916154,3.152933 0,0 -2.1826,1.218557 -2.1826,1.218557 l 0,0 c -0.394175,-1.030795 -0.648428,-2.105937 -0.97689,-3.158339 0,0 2.243336,-1.213151 2.243336,-1.213151 z"
     inkscape:connector-curvature="0" /><path
     style="fill:#000000;fill-opacity:1;fill-rule:nonzero;stroke:none;stroke-width:1px;stroke-linecap:butt;stroke-linejoin:miter;stroke-opacity:1"
     id="path3416"
     d="m 61.771032,13.184846 c 1.026327,-1.117323 1.889708,-2.365108 2.676732,-3.658254 0.461238,-0.7957041 0.246278,-0.4115004 0.647744,-1.1510046 0,0 2.261614,-1.012681 2.261614,-1.012681 l 0,0 c -0.420398,0.7563288 -0.19638,0.36442 -0.674607,1.1742628 -0.432212,0.7177511 -0.877495,1.422453 -1.365738,2.1039758 -0.630239,0.879731 -0.267841,0.351673 -0.887114,1.143581 -0.110441,0.14123 -0.21384,0.287828 -0.32076,0.431742 0,0 -2.337871,0.968378 -2.337871,0.968378 z"
     inkscape:connector-curvature="0" /><path
     style="fill:#000000;fill-opacity:1;fill-rule:nonzero;stroke:none;stroke-width:1px;stroke-linecap:butt;stroke-linejoin:miter;stroke-opacity:1"
     id="path3418"
     d="m 14.052977,37.45734 c 0.299414,1.744965 0.928834,3.413796 1.572424,5.05574 0,0 -2.067691,1.151776 -2.067691,1.151776 l 0,0 c -0.633502,-1.651675 -1.264276,-3.310655 -1.747199,-5.013645 0,0 2.242466,-1.193871 2.242466,-1.193871 z"
     inkscape:connector-curvature="0" /><path
     style="fill:#000000;fill-opacity:1;fill-rule:nonzero;stroke:none;stroke-width:1px;stroke-linecap:butt;stroke-linejoin:miter;stroke-opacity:1"
     id="path3420"
     d="m 18.193068,42.856181 c 1.794335,-0.688645 3.551696,-1.470426 5.284284,-2.301203 0,0 -1.894766,1.508695 -1.894766,1.508695 l 0,0 c -1.782728,0.828995 -3.577572,1.642481 -5.415456,2.341658 0,0 2.025938,-1.54915 2.025938,-1.54915 z"
     inkscape:connector-curvature="0" /><path
     style="fill:#000000;fill-opacity:1;fill-rule:nonzero;stroke:none;stroke-width:1px;stroke-linecap:butt;stroke-linejoin:miter;stroke-opacity:1"
     id="path3422"
     d="m 20.041309,36.403566 c -0.0302,0.844728 -0.02178,1.690312 -0.01508,2.53539 0.0086,0.367335 -0.006,0.735069 0.02795,1.101153 0,0 -2.254745,1.176411 -2.254745,1.176411 l 0,0 c -0.03797,-0.377999 -0.01263,-0.756688 -0.01316,-1.13625 0.0066,-0.839949 0.01547,-1.680435 -0.01508,-2.520021 0,0 2.270118,-1.156683 2.270118,-1.156683 z"
     inkscape:connector-curvature="0" /><path
     style="fill:#000000;fill-opacity:1;fill-rule:nonzero;stroke:none;stroke-width:1px;stroke-linecap:butt;stroke-linejoin:miter;stroke-opacity:1"
     id="path3424"
     d="m 31.504164,44.21484 c 2.793478,-0.67465 5.60888,-1.23297 8.439496,-1.726301 0.501101,-0.08206 1.002203,-0.164127 1.503304,-0.24619 0,0 -1.864768,1.399982 -1.864768,1.399982 l 0,0 c -0.489016,0.07432 -0.978031,0.148637 -1.467046,0.222955 -2.904864,0.494369 -5.788236,1.089247 -8.625893,1.890268 0,0 2.014907,-1.540714 2.014907,-1.540714 z"
     inkscape:connector-curvature="0" /><path
     style="fill:#000000;fill-opacity:1;fill-rule:nonzero;stroke:none;stroke-width:1px;stroke-linecap:butt;stroke-linejoin:miter;stroke-opacity:1"
     id="path3426"
     d="m 42.041309,37.778566 c -0.05202,1.099463 -0.110969,2.198474 -0.148033,3.298647 -0.02798,0.497424 -0.06252,0.994888 -0.137939,1.487502 0,0 -2.278745,1.106943 -2.278745,1.106943 l 0,0 c 0.113265,-0.483124 0.14588,-0.979428 0.193525,-1.472634 0.04851,-1.086898 0.132811,-2.1757 0.101075,-3.263775 0,0 2.270117,-1.156683 2.270117,-1.156683 z"
     inkscape:connector-curvature="0" /><path
     style="fill:#000000;fill-opacity:1;fill-rule:nonzero;stroke:none;stroke-width:1px;stroke-linecap:butt;stroke-linejoin:miter;stroke-opacity:1"
     id="path3428"
     d="m 29.230625,40.706489 c 1.748493,-2.263888 3.551726,-4.486326 5.34126,-6.718169 0.338638,-0.41631 0.677277,-0.832621 1.015915,-1.248932 0,0 2.127661,-0.905824 2.127661,-0.905824 l 0,0 c -0.3474,0.419259 -0.6948,0.838518 -1.0422,1.257777 -1.120206,1.384905 -2.223753,2.780454 -3.314098,4.188975 -0.348667,0.450412 -1.098633,1.409137 -1.466604,1.91773 -0.117114,0.161868 -0.22357,0.331186 -0.335355,0.496779 0,0 -2.326579,1.011664 -2.326579,1.011664 z"
     inkscape:connector-curvature="0" /><path
     style="fill:#000000;fill-opacity:1;fill-rule:nonzero;stroke:none;stroke-width:1px;stroke-linecap:butt;stroke-linejoin:miter;stroke-opacity:1"
     id="path3430"
     d="m 41.538856,30.226159 c 0.122473,1.108781 0.351376,2.203667 0.607236,3.288506 0.185573,0.780083 0.09671,0.402121 0.266955,1.133802 0,0 -2.192572,1.177761 -2.192572,1.177761 l 0,0 c -0.153349,-0.736566 -0.07111,-0.356511 -0.247957,-1.139893 -0.256625,-1.088228 -0.487027,-2.182855 -0.689004,-3.282562 0,0 2.255342,-1.177614 2.255342,-1.177614 z"
     inkscape:connector-curvature="0" /><path
     style="fill:#000000;fill-opacity:1;fill-rule:nonzero;stroke:none;stroke-width:1px;stroke-linecap:butt;stroke-linejoin:miter;stroke-opacity:1"
     id="path3432"
     d="m 62.865985,41.297455 c 0.651594,-0.656058 1.437557,-1.157042 2.1338,-1.763414 0.712596,-0.620615 0.762694,-0.712008 1.403789,-1.404439 0.722707,-0.908757 1.453736,-1.850753 1.048601,-3.08531 -0.09755,-0.297252 -0.234084,-0.58915 -0.425702,-0.836449 -0.239295,-0.308829 -0.565827,-0.538879 -0.84874,-0.808318 -0.373055,-0.234299 -0.731397,-0.493847 -1.119165,-0.702898 -1.376764,-0.74223 -3.241691,-1.322528 -4.80765,-1.436805 -0.345948,-0.02524 -0.693736,-0.0012 -1.040604,-0.0018 0.574333,-0.565833 -2.263826,0.735811 -1.709736,0.517717 0.477994,-0.188142 0.908178,-0.679464 1.416668,-0.606571 0.299411,0.04292 -0.378325,0.4742 -0.534939,0.732968 -0.379212,0.626558 -0.449362,0.965136 -0.678069,1.652568 -0.04937,0.273929 -0.140673,0.543544 -0.148102,0.821786 -0.03669,1.374218 0.981544,2.463178 1.970881,3.274705 0.289006,0.237063 0.605697,0.438206 0.908545,0.657309 2.027366,1.428815 4.126431,1.879971 6.527101,2.267314 0.947278,0.163397 1.902505,0.198724 2.860513,0.196607 0,0 -1.983637,1.436347 -1.983637,1.436347 l 0,0 c -0.946135,-0.03271 -1.889442,-0.09714 -2.822931,-0.267933 -2.381319,-0.415408 -4.614422,-0.881562 -6.601743,-2.351276 -1.351014,-1.004784 -3.049258,-2.26147 -3.050193,-4.143225 -1.44e-4,-0.289198 0.09425,-0.570665 0.141369,-0.855997 0.224081,-0.729076 0.28027,-1.043756 0.650936,-1.71878 0.149901,-0.272986 0.267409,-0.58792 0.51065,-0.782408 0.586766,-0.469159 2.34173,-1.831608 3.550904,-2.122437 0.307725,-0.07401 0.627926,-0.08 0.941889,-0.119993 0.348526,0.01234 0.698646,0.0015 1.045579,0.03703 1.589401,0.162633 3.437938,0.772746 4.8345,1.536283 0.401327,0.219416 0.774493,0.486812 1.16174,0.730218 0.307769,0.285769 0.660804,0.529467 0.923305,0.857305 0.58269,0.727721 0.801429,1.748584 0.492521,2.634697 -0.181529,0.520721 -0.674006,1.122941 -0.987976,1.552768 -0.2225,0.24875 -0.435612,0.506226 -0.667499,0.746248 -0.843433,0.873024 -1.832454,1.569403 -2.747981,2.358294 0,0 -2.348624,0.997872 -2.348624,0.997872 z"
     inkscape:connector-curvature="0" /><path
     style="fill:#000000;fill-opacity:1;fill-rule:nonzero;stroke:none;stroke-width:1px;stroke-linecap:butt;stroke-linejoin:miter;stroke-opacity:1"
     id="path3434"
     d="m 56.709075,42.277504 c 0.588856,-0.888398 1.13593,-1.803144 1.680044,-2.719273 0,0 2.215532,-0.983423 2.215532,-0.983423 l 0,0 c -0.527078,0.891724 -1.064364,1.778099 -1.567014,2.683871 0,0 -2.328562,1.018825 -2.328562,1.018825 z"
     inkscape:connector-curvature="0" /><path
     style="fill:#000000;fill-opacity:1;fill-rule:nonzero;stroke:none;stroke-width:1px;stroke-linecap:butt;stroke-linejoin:miter;stroke-opacity:1"
     id="path3436"
     d="m 38.729306,8.665134 c 2.066416,-0.3179487 4.16567,-0.374376 6.251906,-0.4604133 1.25194,-0.04502 2.504274,-0.077165 3.756596,-0.1090586 0,0 -1.938397,1.4138852 -1.938397,1.4138852 l 0,0 c -1.237093,0.01468 -2.474273,0.031378 -3.710544,0.082519 -2.135332,0.09575 -4.286282,0.1734262 -6.387251,0.5980607 0,0 2.02769,-1.5249927 2.02769,-1.5249927 z"
     inkscape:connector-curvature="0" /><path
     style="fill:#000000;fill-opacity:1;fill-rule:nonzero;stroke:none;stroke-width:1px;stroke-linecap:butt;stroke-linejoin:miter;stroke-opacity:1"
     id="path3446"
     d="m 72.197177,9.6599947 c -0.340768,0.5341163 -0.685344,1.0676383 -1.000508,1.6174543 -0.219587,0.390167 -0.244126,0.831369 -0.296212,1.264668 -0.07532,0.447491 -0.118283,0.898664 -0.140803,1.351581 -0.04685,0.415906 0.02322,0.811277 0.133767,1.209921 0.220941,0.683952 0.530382,1.33415 0.928084,1.932049 0.266836,0.350291 0.632266,0.612956 1.025245,0.804951 0.420537,0.157423 0.881228,0.15266 1.324563,0.164374 0.476142,0.0078 0.952393,0.0032 1.428569,0.001 0.439471,0.02727 0.869175,-0.06603 1.302849,-0.120289 0.05535,-0.01802 0.11069,-0.03605 0.166036,-0.05407 0,0 -2.026121,1.546707 -2.026121,1.546707 l 0,0 c -0.05982,0.0098 -0.119632,0.01957 -0.179448,0.02935 -0.437831,0.05771 -0.875245,0.115009 -1.318378,0.0925 -0.477193,0.0012 -0.954502,0.0036 -1.431532,-0.01173 -0.474241,-0.023 -0.966118,-0.03407 -1.398319,-0.253918 -0.413345,-0.239587 -0.800033,-0.524603 -1.071202,-0.925931 -0.397974,-0.623518 -0.717831,-1.295026 -0.975151,-1.988276 -0.135861,-0.420005 -0.230248,-0.838482 -0.178997,-1.28353 0.02075,-0.459502 0.05227,-0.918321 0.129584,-1.372399 0.07426,-0.45357 0.05796,-0.924916 0.261399,-1.350826 0.300628,-0.561383 0.684698,-1.074098 0.988012,-1.63478 0,0 2.328563,-1.0188243 2.328563,-1.0188243 z"
     inkscape:connector-curvature="0" /><path
     style="fill:#000000;fill-opacity:1;fill-rule:nonzero;stroke:none;stroke-width:1px;stroke-linecap:butt;stroke-linejoin:miter;stroke-opacity:1"
     id="path3448"
     d="m 68.938366,15.019244 c 1.223629,-0.296976 2.44309,-0.610437 3.663065,-0.921949 0,0 -1.939298,1.483765 -1.939298,1.483765 l 0,0 c -1.253347,0.314101 -2.503194,0.641439 -3.751813,0.973708 0,0 2.028046,-1.535524 2.028046,-1.535524 z"
     inkscape:connector-curvature="0" /></svg>