<?xml version="1.0" encoding="UTF-8" standalone="no"?>
<!-- Created with Inkscape (http://www.inkscape.org/) -->

<svg
   xmlns:dc="http://purl.org/dc/elements/1.1/"
   xmlns:cc="http://creativecommons.org/ns#"
   xmlns:rdf="http://www.w3.org/1999/02/22-rdf-syntax-ns#"
   xmlns:svg="http://www.w3.org/2000/svg"
   xmlns="http://www.w3.org/2000/svg"
   xmlns:sodipodi="http://sodipodi.sourceforge.net/DTD/sodipodi-0.dtd"
   xmlns:inkscape="http://www.inkscape.org/namespaces/inkscape"
   id="svg4412"
   version="1.1"
   inkscape:version="0.91 r13725"
   width="93.987114"
   height="91.411415"
   viewBox="0 0 93.987114 91.411415"
   sodipodi:docname="trampoline.svg">
  <metadata
     id="metadata4418">
    <rdf:RDF>
      <cc:Work
         rdf:about="">
        <dc:format>image/svg+xml</dc:format>
        <dc:type
           rdf:resource="http://purl.org/dc/dcmitype/StillImage" />
        <dc:title></dc:title>
      </cc:Work>
    </rdf:RDF>
  </metadata>
  <defs
     id="defs4416" />
  <sodipodi:namedview
     pagecolor="#ffffff"
     bordercolor="#666666"
     borderopacity="1"
     objecttolerance="10"
     gridtolerance="10"
     guidetolerance="10"
     inkscape:pageopacity="0"
     inkscape:pageshadow="2"
     inkscape:window-width="1600"
     inkscape:window-height="1178"
     id="namedview4414"
     showgrid="false"
     inkscape:zoom="3.5563387"
     inkscape:cx="57.949758"
     inkscape:cy="50.534323"
     inkscape:window-x="-8"
     inkscape:window-y="-8"
     inkscape:window-maximized="1"
     inkscape:current-layer="svg4412"
     fit-margin-top="0"
     fit-margin-left="0"
     fit-margin-right="0"
     fit-margin-bottom="0" />
  <g
     transform="matrix(0.91215938,0,0,1.9208564,-890.26054,-1467.7042)"
     id="g3442">
    <path
       style="fill:#565456"
       inkscape:connector-curvature="0"
       id="path31"
       d="m 1041.7,778.9 c -5.6,-2.6 -13.3,-1.2 -19.1,-0.3 -1.9,0.3 -4.1,0.7 -6.2,1.4 -1.5,-0.3 -3.5,-0.8 -4.5,-1.7 -2,-0.4 -1.9,-1.3 0.4,-2.7 0.5,-0.4 1.1,-0.7 1.7,-0.9 0.2,0.1 0.4,0.2 0.7,0.3 3,0.5 31,3.7 25.5,-4.3 -2.3,-3.3 -11.4,-2.8 -14.9,-2.6 -5.4,0.3 -12.5,1.3 -16.7,5.2 -4.7,4.3 -2,7.3 2.7,9.2 -0.9,0.8 -1.6,1.7 -2.1,2.8 -1.1,2.6 -0.5,4.5 1.1,5.8 -2.6,1.5 -4.4,3.9 -3,7.3 2.2,5.3 9.7,5 14.4,5.2 4.4,0.2 8.7,0.1 13.1,-0.2 1.9,-0.1 4.5,0 5.9,-1.7 3.5,-4.3 -3.6,-6 -6.3,-6.4 -6.3,-1.1 -12.6,-1.2 -17.9,2.7 -0.4,0.3 -0.7,0.7 -0.8,1.1 -0.6,-0.1 -1.2,-0.2 -1.7,-0.3 -0.6,-1.4 -1.2,-2.9 -1.9,-4.3 0.2,-0.5 1.6,-0.9 3.3,-1.2 7.2,1.6 18,0.7 20.9,0.7 2.4,-0.1 7.5,-0.5 6.4,-4.4 -0.5,-1.7 -2.1,-2.5 -4,-2.9 1.5,-0.2 2.8,-0.7 3.9,-1.5 3,-2.2 1.9,-5 -0.9,-6.3 z m -15.3,-6.8 c 1.9,-0.1 6.1,-0.3 8.9,0.4 -2.4,0.4 -6.8,0.1 -10.9,-0.3 0.7,0 1.4,-0.1 2,-0.1 z m 2.6,26.5 c 1.5,0.1 2.9,0.4 4.4,0.7 -3.1,-0.1 -6.5,0.4 -9.6,0.3 -0.5,0 -1,0 -1.5,0 2.1,-0.8 4.3,-1.1 6.7,-1 z m -1.2,-12.6 c 1.3,0.1 2.8,0.4 4.4,0.6 -0.2,0 -0.4,0 -0.5,0.1 -5.1,0.6 -10.6,1.4 -15.7,2.7 -0.6,-0.2 -1.2,-0.4 -1.6,-0.7 -2.2,-0.4 -1.8,-1.6 1.2,-3.8 0.4,-0.2 0.8,-0.4 1.3,-0.6 4.3,0.9 8.9,1.5 10.9,1.7 z m 11.4,-3.3 c -3.4,0.3 -7.2,-0.3 -10.6,-0.6 -0.3,0 -0.7,-0.1 -1,-0.1 0.6,-0.1 1.3,-0.1 1.9,-0.2 1.8,-0.1 3.6,-0.2 5.5,0 1.3,0.1 2.6,0.2 3.9,0.6 2.3,0.4 2.4,0.5 0.3,0.3 z" />
    <g
       id="g3435">
      <path
         d="m 1042.4,778.9 c -5.6,-2.6 -13.3,-1.2 -19.1,-0.3 -1.9,0.3 -4.1,0.7 -6.2,1.4 -1.5,-0.3 -3.5,-0.8 -4.5,-1.7 -2,-0.4 -1.9,-1.3 0.4,-2.7 0.4,-0.3 0.8,-0.5 1.2,-0.7 0,0 0,0 0,0 2.7,-3.1 7.8,-2.7 11.6,-3 0.2,0 0.4,0.1 0.5,0.2 0.2,0 0.5,0 0.7,0 1.9,-0.1 6.1,-0.3 8.9,0.4 -2.1,0.3 -5.9,0.2 -9.5,-0.1 0.2,0.4 0,1 -0.6,1.1 -3,0.2 -7.1,-0.1 -9.7,1.7 5.1,0.7 30.1,3.2 24.9,-4.4 -2.3,-3.3 -11.4,-2.8 -14.9,-2.6 -5.4,0.3 -12.5,1.3 -16.7,5.2 -4.7,4.3 -2,7.3 2.7,9.2 -0.9,0.8 -1.6,1.7 -2.1,2.8 -1.1,2.6 -0.5,4.5 1.1,5.8 -2.6,1.5 -4.4,3.9 -3,7.3 1.3,3.3 4.7,4.4 8.3,4.9 0,-0.2 0.1,-0.5 0.3,-0.7 2.3,-1.2 4.3,-3 7,-3.2 1.9,-0.6 3.8,-0.8 5.9,-0.7 1.5,0.1 2.9,0.4 4.4,0.7 -2.9,-0.1 -6,0.3 -8.9,0.3 0.3,0.4 0.2,1.2 -0.5,1.2 -1.6,-0.1 -3.7,1.1 -5.6,2.3 -0.8,0.5 -0.4,1.7 0.5,1.7 0.9,0 1.8,0 2.4,0 4.4,0.2 9.3,-1.1 13.7,-1.3 1.9,-0.1 4.5,0 5.9,-1.7 3.5,-4.3 -3.6,-6 -6.3,-6.4 -6.3,-1.1 -12.6,-1.2 -17.9,2.7 -0.4,0.3 -0.7,0.7 -0.8,1.1 -0.6,-0.1 -1.2,-0.2 -1.7,-0.3 -0.6,-1.4 -1.2,-2.9 -1.9,-4.3 0.1,-0.3 0.8,-0.6 1.7,-0.9 0.1,-0.1 0.1,-0.2 0.2,-0.2 3.1,-1.8 6.5,-2.1 9.9,-2.8 3.6,-0.8 6.8,-1.5 10.6,-1.5 0.9,0 0.9,1.4 0,1.4 -3.6,0 -6.7,0.7 -10.2,1.4 -2.4,0.5 -4.9,0.8 -7.2,1.6 7.1,1.2 16.6,0.4 19.2,0.3 2.4,-0.1 7.5,-0.5 6.4,-4.4 -0.5,-1.7 -2.1,-2.5 -4,-2.9 1.5,-0.2 2.8,-0.7 3.9,-1.5 2.9,-2.3 1.8,-5.1 -1,-6.4 z m -2.5,3.8 c -3.2,0.3 -6.7,-0.2 -9.9,-0.6 -0.1,0.2 -0.2,0.3 -0.4,0.4 -1.9,0.5 -3.7,0.8 -5.6,1 -1.7,0.2 -3.5,0.2 -5,1 4,0.9 7.9,1.3 9.6,1.5 1.3,0.1 2.8,0.4 4.4,0.6 -0.2,0 -0.4,0 -0.5,0.1 -5.1,0.6 -10.6,1.4 -15.7,2.7 -0.6,-0.2 -1.2,-0.4 -1.6,-0.7 -2.2,-0.4 -1.8,-1.6 1.2,-3.8 0.1,0 0.2,-0.1 0.3,-0.1 0,-0.1 0.1,-0.2 0.2,-0.3 3.1,-3 8.7,-2.1 12.5,-3.2 0.5,-0.2 0.9,0.3 0.9,0.7 0.1,0 0.1,0 0.2,0 1.8,-0.1 3.6,-0.2 5.5,0 1.3,0.1 2.6,0.2 3.9,0.6 2,0.2 2,0.3 0,0.1 z"
         id="path33"
         inkscape:connector-curvature="0"
         style="fill:#828282" />
      <path
         d="m 1035.3,772 c -5.8,-1 -11.6,-1 -17.4,0 -0.6,0.1 -0.4,1.1 0.3,1 5.6,-0.9 11.3,-0.9 16.9,0 0.5,0.1 0.8,-0.9 0.2,-1 z"
         id="path35"
         inkscape:connector-curvature="0"
         style="fill:#b2abb2" />
      <path
         d="m 1040.3,782 c -7.3,-1.6 -14.9,-1.9 -22.1,0.4 -0.6,0.2 -0.3,1.2 0.3,1 7.1,-2.3 14.4,-2 21.6,-0.4 0.5,0.1 0.8,-0.8 0.2,-1 z"
         id="path37"
         inkscape:connector-curvature="0"
         style="fill:#b2abb2" />
      <path
         d="m 1032.6,798.9 c -4.9,-0.6 -10.2,-1.1 -14.5,1.5 -1.1,0.4 -2.2,1 -3.2,1.7 -0.3,0.2 -0.3,0.5 -0.1,0.7 0,0.1 0,0.2 0.1,0.3 0.4,0.4 0.9,0.5 1.4,0.4 0.3,-0.1 0.4,-0.4 0.3,-0.7 0.1,0 0.1,-0.1 0.2,-0.1 0.5,-0.5 1.1,-0.9 1.7,-1.3 4.4,-1.8 9.4,-1.7 14.2,-1.4 0.5,-0.1 0.5,-1 -0.1,-1.1 z"
         id="path41"
         inkscape:connector-curvature="0"
         style="fill:#aaaaaa" />
      <path
         d="m 1035.4,789.3 c -1.8,-0.3 -3.7,0 -5.5,0.4 -1.5,0 -3,0 -4.5,0.2 -1.7,0.2 -3.3,0.5 -4.9,0.9 -1.2,0.1 -2.5,0.4 -3.6,1 0,0 0,0 0,0 0,0 -0.1,0 -0.1,0 -0.6,0.2 -0.3,1.2 0.3,1 1.3,-0.4 2.7,-0.8 4,-1.1 1.8,-0.2 3.7,-0.1 5.5,-0.4 1.3,-0.2 2.6,-0.5 3.9,-0.8 1.7,0 3.4,0 5,-0.3 0.4,0 0.4,-0.8 -0.1,-0.9 z"
         id="path43"
         inkscape:connector-curvature="0"
         style="fill:#aaaaaa" />
    </g>
  </g>
  <rect
     style="fill:#800080;fill-opacity:1"
     id="rect4497"
     width="93.987114"
     height="12.517535"
     x="0"
     y="0" />
  <g
     id="g4609"
     transform="matrix(1,0,0,1.5810025,-2.1451847e-8,-54.917778)">
    <path
       inkscape:connector-curvature="0"
       id="path4592"
       d="m 27.823995,92.48047 c -0.61513,-0.01744 -1.118419,-0.05316 -1.118419,-0.07937 0,-0.02621 0.359653,-0.908299 0.799227,-1.96019 0.920849,-2.203567 1.426049,-2.966796 3.049476,-4.606983 1.276716,-1.289896 2.386128,-2.112687 3.743768,-2.776551 2.079539,-1.016859 2.14227,-1.023276 12.638481,-1.29284 l 6.263145,-0.16085 0.862979,0.312826 c 4.208068,1.525407 8.84362,5.820463 9.682348,8.971152 0.07668,0.288064 0.139955,0.780988 0.140605,1.095388 l 0.0012,0.571636 -17.472186,-0.02125 c -9.609702,-0.01169 -17.975474,-0.03552 -18.590604,-0.05296 z m 33.999929,-0.985776 c -0.06835,-0.02758 -0.18019,-0.02758 -0.248538,0 -0.06835,0.02758 -0.01243,0.05014 0.124269,0.05014 0.136695,0 0.192616,-0.02257 0.124269,-0.05014 z M 32.024279,85.89388 c 0.09897,-0.109357 0.15757,-0.19883 0.130231,-0.19883 -0.02734,0 -0.13068,0.08947 -0.229646,0.19883 -0.09897,0.109356 -0.157571,0.19883 -0.130231,0.19883 0.02734,0 0.13068,-0.08947 0.229646,-0.19883 z m 0.758293,-0.671052 c 0.12366,-0.157677 0.120143,-0.161194 -0.03753,-0.03753 -0.1656,0.129873 -0.218263,0.211511 -0.136441,0.211511 0.02064,0 0.09893,-0.07829 0.173976,-0.173977 z"
       style="fill:#565456;fill-opacity:1" />
    <path
       inkscape:connector-curvature="0"
       id="path4592-9"
       d="m 29.054022,92.394794 c -0.61513,-0.01618 -1.118419,-0.0493 -1.118419,-0.07361 0,-0.02431 0.359653,-0.842333 0.799227,-1.81783 0.920849,-2.043533 1.426049,-2.751332 3.049476,-4.272399 1.276716,-1.196218 2.386128,-1.959253 3.743768,-2.574903 2.079539,-0.94301 2.14227,-0.948961 12.638481,-1.198948 l 6.263145,-0.149168 0.862979,0.290106 c 4.208068,1.414625 8.84362,5.397751 9.682348,8.31962 0.07668,0.267144 0.139955,0.724268 0.140605,1.015836 l 0.0012,0.53012 -17.472186,-0.01971 c -9.609702,-0.01085 -17.975474,-0.03294 -18.590604,-0.04912 z M 63.053951,91.48061 c -0.06835,-0.02558 -0.18019,-0.02558 -0.248538,0 -0.06835,0.02558 -0.01243,0.0465 0.124269,0.0465 0.136695,0 0.192616,-0.02093 0.124269,-0.0465 z M 33.254306,86.286558 c 0.09897,-0.101415 0.15757,-0.18439 0.130231,-0.18439 -0.02734,0 -0.13068,0.08297 -0.229646,0.18439 -0.09897,0.101414 -0.157571,0.18439 -0.130231,0.18439 0.02734,0 0.13068,-0.08297 0.229646,-0.18439 z m 0.758293,-0.622318 c 0.12366,-0.146225 0.120143,-0.149486 -0.03753,-0.03481 -0.1656,0.120441 -0.218263,0.196151 -0.136441,0.196151 0.02064,0 0.09893,-0.07261 0.173976,-0.161343 z"
       style="fill:#828282;fill-opacity:1" />
  </g>
</svg>
