<?xml version="1.0" encoding="UTF-8" ?>
<!DOCTYPE svg PUBLIC "-//W3C//DTD SVG 1.1//EN" "http://www.w3.org/Graphics/SVG/1.1/DTD/svg11.dtd">
<svg width="197pt" height="240pt" viewBox="0 0 197 240" version="1.1" xmlns="http://www.w3.org/2000/svg">
<path fill="#ffffff" d=" M 0.00 0.00 L 95.65 0.00 C 75.58 0.64 55.85 7.82 40.01 20.14 C 38.49 11.78 30.45 5.28 21.91 6.03 C 12.61 6.34 4.61 15.40 6.14 24.73 C 7.05 32.38 13.83 38.04 21.22 39.14 C 8.08 56.51 0.70 78.01 0.00 99.75 L 0.00 0.00 Z" />
<path fill="#000000" d=" M 95.65 0.00 L 101.32 0.00 C 122.57 0.68 143.51 8.65 159.72 22.40 C 160.31 15.99 164.09 9.81 170.22 7.38 C 178.29 3.70 188.77 7.54 192.46 15.63 C 195.53 21.90 193.89 30.00 188.61 34.58 C 185.20 37.89 180.38 38.99 175.77 39.19 C 189.04 56.49 196.32 78.09 197.00 99.83 L 197.00 110.50 C 131.33 110.50 65.67 110.50 0.00 110.50 L 0.00 99.75 C 0.70 78.01 8.08 56.51 21.22 39.14 C 13.83 38.04 7.05 32.38 6.14 24.73 C 4.61 15.40 12.61 6.34 21.91 6.03 C 30.45 5.28 38.49 11.78 40.01 20.14 C 55.85 7.82 75.58 0.64 95.65 0.00 Z" />
<path fill="#ffffff" d=" M 101.32 0.00 L 197.00 0.00 L 197.00 99.83 C 196.32 78.09 189.04 56.49 175.77 39.19 C 180.38 38.99 185.20 37.89 188.61 34.58 C 193.89 30.00 195.53 21.90 192.46 15.63 C 188.77 7.54 178.29 3.70 170.22 7.38 C 164.09 9.81 160.31 15.99 159.72 22.40 C 143.51 8.65 122.57 0.68 101.32 0.00 Z" />
<path fill="#ffaec9" d=" M 39.97 22.68 C 54.76 10.91 73.05 3.50 91.95 2.23 C 117.22 0.32 143.04 9.47 161.60 26.70 C 161.90 21.89 162.14 16.52 165.78 12.90 C 171.57 6.21 183.20 6.48 188.68 13.42 C 193.81 19.20 192.81 29.01 186.60 33.64 C 182.45 37.34 176.61 37.23 171.41 36.75 C 187.84 56.65 196.34 82.75 194.87 108.51 C 130.62 108.49 66.38 108.49 2.13 108.51 C 0.75 83.01 8.96 56.99 25.29 37.28 C 20.66 37.09 15.65 36.25 12.35 32.69 C 7.17 28.00 6.59 19.42 10.88 13.97 C 15.19 8.06 23.95 6.28 30.30 9.84 C 34.99 12.27 38.03 17.37 38.01 22.65 C 38.50 22.66 39.48 22.67 39.97 22.68 Z" />
<path fill="#000000" d=" M 99.00 26.97 C 102.90 24.21 108.36 24.11 112.44 26.55 C 118.80 30.18 122.58 36.88 125.11 43.52 C 124.42 43.76 123.03 44.23 122.33 44.47 C 119.87 38.32 116.39 31.86 110.21 28.79 C 106.72 26.95 102.33 27.80 99.42 30.34 C 95.07 34.10 92.85 39.57 90.67 44.74 C 89.97 44.49 88.58 43.98 87.88 43.73 C 90.39 37.51 93.28 30.90 99.00 26.97 Z" />
<path fill="#000000" d=" M 137.93 27.02 C 141.83 24.23 147.31 24.09 151.41 26.53 C 157.79 30.16 161.57 36.87 164.12 43.52 C 163.42 43.76 162.03 44.23 161.33 44.47 C 158.86 38.30 155.37 31.81 149.15 28.76 C 145.67 26.96 141.33 27.81 138.44 30.32 C 134.08 34.08 131.86 39.56 129.68 44.73 C 128.98 44.48 127.58 43.98 126.88 43.73 C 129.38 37.54 132.26 30.96 137.93 27.02 Z" />
<path fill="#f17fde" d=" M 130.38 54.49 C 139.31 54.17 148.51 57.83 154.18 64.86 C 158.52 70.08 160.49 77.28 159.07 83.95 C 157.85 90.29 153.76 95.88 148.44 99.44 C 138.72 106.07 125.08 106.20 115.19 99.86 C 109.57 96.30 105.21 90.55 103.94 83.95 C 102.49 77.27 104.50 70.06 108.84 64.83 C 114.03 58.41 122.20 54.80 130.38 54.49 Z" />
<path fill="#ffb2c9" d=" M 124.32 58.43 C 135.30 55.39 148.48 59.80 154.07 70.05 C 158.22 77.32 156.86 87.01 151.18 93.09 C 141.92 103.51 124.27 104.29 113.88 95.13 C 108.21 90.34 105.19 82.40 107.01 75.11 C 108.90 66.76 116.24 60.51 124.32 58.43 Z" />
<path fill="#000000" d=" M 122.00 68.00 C 122.75 68.00 124.25 68.00 125.00 68.00 C 125.00 76.67 125.00 85.33 125.00 94.00 C 124.25 94.00 122.75 94.00 122.00 94.00 C 122.00 85.33 122.00 76.67 122.00 68.00 Z" />
<path fill="#000000" d=" M 137.00 68.00 C 137.75 68.00 139.25 68.00 140.00 68.00 C 140.00 76.67 140.00 85.33 140.00 94.00 C 139.25 94.00 137.75 94.00 137.00 94.00 C 137.00 85.33 137.00 76.67 137.00 68.00 Z" />
<path fill="#ffffff" d=" M 0.00 110.50 C 65.67 110.50 131.33 110.50 197.00 110.50 L 197.00 240.00 L 0.00 240.00 L 0.00 110.50 Z" />
<path fill="#303030" d=" M 62.90 113.51 C 80.57 113.00 98.26 113.41 115.94 113.28 C 122.08 113.27 128.24 113.15 134.36 113.82 C 133.22 114.11 132.07 114.39 130.93 114.69 C 119.81 118.87 107.74 119.41 96.23 122.15 C 90.14 122.98 84.22 125.27 77.98 124.76 C 71.75 124.36 64.86 126.20 59.48 122.12 C 58.30 118.64 59.93 115.40 62.90 113.51 Z" />
<path fill="#303030" d=" M 71.51 129.99 C 92.38 125.66 113.33 121.73 134.25 117.66 C 138.64 116.78 144.17 119.85 143.63 124.85 C 142.76 125.71 141.90 126.59 141.06 127.47 C 139.12 128.31 137.21 129.34 135.08 129.53 C 113.15 133.14 91.48 138.15 69.65 142.27 C 66.31 142.98 62.37 142.63 60.07 139.81 C 58.51 138.12 59.39 135.74 59.50 133.73 C 63.21 131.65 67.36 130.68 71.51 129.99 Z" />
<path fill="#303030" d=" M 62.80 146.64 C 87.37 142.57 111.65 136.94 136.12 132.40 C 139.13 133.03 141.80 134.53 143.72 136.96 C 144.05 140.45 141.25 143.30 137.95 143.84 C 114.41 148.88 90.76 153.35 67.09 157.78 C 64.25 158.45 61.92 156.62 59.67 155.23 C 58.13 151.84 59.90 148.51 62.80 146.64 Z" />
<path fill="#303030" d=" M 130.06 148.85 C 133.22 148.19 136.53 147.66 139.72 148.44 C 141.18 149.34 142.30 150.67 143.52 151.87 C 143.53 152.68 143.54 154.31 143.54 155.12 C 140.73 159.17 135.71 159.73 131.26 160.55 C 113.13 164.15 94.89 167.21 76.87 171.36 C 71.92 172.30 66.90 173.34 61.85 172.50 C 60.77 171.14 59.12 169.93 59.13 168.02 C 58.70 164.86 61.54 162.23 64.47 161.73 C 69.35 160.92 74.17 159.81 79.03 158.88 C 89.33 156.17 99.97 155.07 110.35 152.72 C 116.94 151.52 123.46 150.00 130.06 148.85 Z" />
<path fill="#303030" d=" M 69.79 175.86 C 91.25 171.99 112.48 166.87 134.01 163.42 C 137.70 162.59 141.01 164.28 143.54 166.84 C 143.53 167.62 143.49 169.17 143.47 169.94 C 142.68 171.07 141.90 172.20 141.12 173.34 C 133.81 175.35 126.29 176.41 118.89 178.03 C 105.66 180.88 92.40 183.54 79.06 185.84 C 73.65 186.76 68.05 188.90 62.56 187.29 C 59.43 186.41 58.19 182.58 59.69 179.83 C 61.99 176.60 66.30 176.68 69.79 175.86 Z" />
<path fill="#303030" d=" M 131.49 178.66 C 134.49 178.20 137.85 177.72 140.58 179.40 C 142.66 180.81 143.66 183.30 143.61 185.77 C 142.71 186.63 141.84 187.51 140.98 188.41 C 137.19 189.92 133.07 190.11 129.15 191.13 C 118.98 193.78 108.53 195.07 98.25 197.19 C 88.90 199.19 79.47 200.76 70.17 202.97 C 68.20 203.53 66.13 203.50 64.11 203.58 C 62.42 202.15 59.75 201.31 59.26 198.89 C 58.84 197.50 59.49 196.09 59.67 194.71 C 60.82 193.96 61.97 193.20 63.10 192.42 C 85.79 187.32 108.82 183.90 131.49 178.66 Z" />
<path fill="#303030" d=" M 89.81 202.37 C 104.51 198.85 119.51 196.85 134.26 193.55 C 138.73 192.39 144.14 196.16 143.70 201.01 C 141.47 203.24 138.69 204.85 135.54 205.30 C 112.57 209.24 89.90 214.71 66.93 218.58 C 64.15 218.97 61.40 217.40 59.71 215.29 C 58.24 213.20 59.74 210.79 60.49 208.75 C 69.97 205.53 80.08 204.68 89.81 202.37 Z" />
<path fill="#303030" d=" M 123.07 210.68 C 129.08 210.12 135.19 206.89 141.11 209.66 C 141.88 210.81 142.68 211.94 143.48 213.08 C 143.49 213.83 143.50 215.34 143.51 216.09 C 142.28 217.21 141.03 218.33 139.79 219.45 C 127.56 221.60 115.52 224.65 103.27 226.71 C 91.37 228.80 79.58 231.49 67.67 233.57 C 64.76 234.30 62.14 232.45 59.62 231.31 C 59.19 229.10 59.21 226.87 59.61 224.66 C 62.32 223.35 65.10 222.11 68.08 221.55 C 86.44 218.10 104.86 214.87 123.07 210.68 Z" />
<path fill="#303030" d=" M 89.74 231.91 C 99.57 230.23 109.37 228.35 119.16 226.47 C 124.46 226.18 129.79 226.39 135.10 226.36 C 138.58 226.40 142.70 228.38 143.56 231.96 C 142.94 235.42 139.52 237.89 136.04 237.75 C 120.36 237.87 104.68 237.77 89.00 237.80 C 81.70 237.69 74.38 238.16 67.12 237.18 C 68.49 236.97 69.87 236.79 71.25 236.62 C 71.66 236.32 72.49 235.72 72.90 235.42 C 78.59 234.62 84.13 233.09 89.74 231.91 Z" />
</svg>
