<?xml version="1.0" encoding="UTF-8" standalone="no"?>
<!-- Generator: Adobe Illustrator 18.1.1, SVG Export Plug-In . SVG Version: 6.00 Build 0)  -->

<svg
   xmlns:dc="http://purl.org/dc/elements/1.1/"
   xmlns:cc="http://creativecommons.org/ns#"
   xmlns:rdf="http://www.w3.org/1999/02/22-rdf-syntax-ns#"
   xmlns:svg="http://www.w3.org/2000/svg"
   xmlns="http://www.w3.org/2000/svg"
   xmlns:sodipodi="http://sodipodi.sourceforge.net/DTD/sodipodi-0.dtd"
   xmlns:inkscape="http://www.inkscape.org/namespaces/inkscape"
   version="1.1"
   id="Layer_1"
   x="0px"
   y="0px"
   viewBox="0 0 1182.7208 1500.5559"
   enable-background="new 0 0 2040 1524"
   xml:space="preserve"
   inkscape:version="0.91 r13725"
   sodipodi:docname="SpringPigWhole.svg"
   width="1182.7208"
   height="1500.5559"><metadata
     id="metadata49"><rdf:RDF><cc:Work
         rdf:about=""><dc:format>image/svg+xml</dc:format><dc:type
           rdf:resource="http://purl.org/dc/dcmitype/StillImage" /><dc:title /></cc:Work></rdf:RDF></metadata><defs
     id="defs47" /><sodipodi:namedview
     pagecolor="#ffffff"
     bordercolor="#666666"
     borderopacity="1"
     objecttolerance="10"
     gridtolerance="10"
     guidetolerance="10"
     inkscape:pageopacity="0"
     inkscape:pageshadow="2"
     inkscape:window-width="1600"
     inkscape:window-height="1138"
     id="namedview45"
     showgrid="false"
     inkscape:zoom="0.45254834"
     inkscape:cx="895.79387"
     inkscape:cy="647.8615"
     inkscape:window-x="1592"
     inkscape:window-y="-8"
     inkscape:window-maximized="1"
     inkscape:current-layer="g3"
     fit-margin-top="0"
     fit-margin-left="0"
     fit-margin-right="0"
     fit-margin-bottom="0" /><g
     id="g3"
     transform="matrix(18.488466,0,0,17.667964,-18284.963,-12722.523)"><g
       id="g5"><path
         d="m 1004.3,726.1 c 0,0 -9.7,-4.1 -14.1,-2.1 -4.4,2 4.6,12.8 5.2,14.7 0.6,1.9 8.9,-12.6 8.9,-12.6 z"
         id="path7"
         inkscape:connector-curvature="0"
         style="fill:#ed9cf2" /><path
         d="m 1046.7,738.1 c 0,0 7,-9.5 6.2,-14.9 -0.9,-5.4 -14.6,1.5 -16.7,1.7 -2.1,0.2 10.5,13.2 10.5,13.2 z"
         id="path9"
         inkscape:connector-curvature="0"
         style="fill:#ed9cf2" /><path
         d="m 999.9,727.6 c 0,0 -5.2,-2.2 -6.2,-0.8 -1,1.4 1.8,6.4 1.8,6.4 l 4.4,-5.6 z"
         id="path11"
         inkscape:connector-curvature="0"
         style="fill:#efb8f4" /><path
         d="m 1047.4,731.7 c 0,0 3,-4.7 1.8,-6 -1.2,-1.2 -6.6,0.7 -6.6,0.7 l 4.8,5.3 z"
         id="path13"
         inkscape:connector-curvature="0"
         style="fill:#efb8f4" /><path
         d="m 1014.7,769.5 c 2,-0.3 16.3,-1.1 18.3,-0.9 1.6,0.2 3.2,0.4 4.9,0.6 8.1,-5 13.4,-13.6 13.1,-23.1 -0.4,-14.8 -13.9,-26.4 -30.2,-26 -16.2,0.5 -29,12.9 -28.6,27.7 0.3,10.3 6.9,19 16.3,23.2 0.4,-0.2 4.9,-1.3 6.2,-1.5 z"
         id="path15"
         inkscape:connector-curvature="0"
         style="fill:#ed9cf2" /><path
         d="m 1036.5,748.4 c 0.3,6.7 -6.4,10.3 -14.6,10.6 -8.2,0.2 -15,-3.2 -15.1,-9.7 -0.2,-6.8 6.4,-10.3 14.6,-10.6 8.2,-0.2 14.8,2.8 15.1,9.7 z"
         id="path17"
         inkscape:connector-curvature="0"
         style="fill:#efb8f4" /><ellipse
         transform="matrix(0.9996,-0.02914101,0.02914101,0.9996,-21.3996,29.9429)"
         cx="1016.6"
         cy="749.20001"
         rx="1.5"
         ry="3.8"
         id="ellipse19"
         style="fill:#c88cd1" /><ellipse
         transform="matrix(0.9996,-0.02914101,0.02914101,0.9996,-21.3801,30.2377)"
         cx="1026.7"
         cy="748.59998"
         rx="1.5"
         ry="3.8"
         id="ellipse21"
         style="fill:#c88cd1" /><g
         id="g23"><ellipse
           transform="matrix(0.9996,-0.02914101,0.02914101,0.9996,-20.9933,29.7102)"
           cx="1008.8"
           cy="735.09998"
           rx="1.7"
           ry="1.5"
           id="ellipse25"
           style="fill:#020202" /></g><g
         id="g27"><ellipse
           transform="matrix(0.9996,-0.02914101,0.02914101,0.9996,-20.9604,30.3955)"
           cx="1032.3"
           cy="734.29999"
           rx="1.5"
           ry="1.4"
           id="ellipse29"
           style="fill:#020202" /></g></g><path
       d="m 1039.7877,778.64986 c -5.6,-2.6 -13.3,-1.2 -19.1,-0.3 -1.9,0.3 -4.1,0.7 -6.2,1.4 -1.5,-0.3 -3.5,-0.8 -4.5,-1.7 -2,-0.4 -1.9,-1.3 0.4,-2.7 0.5,-0.4 1.1,-0.7 1.7,-0.9 0.2,0.1 0.4,0.2 0.7,0.3 3,0.5 31,3.7 25.5,-4.3 -2.3,-3.3 -11.4,-2.8 -14.9,-2.6 -5.4,0.3 -12.5,1.3 -16.7,5.2 -4.7,4.3 -2,7.3 2.7,9.2 -0.9,0.8 -1.6,1.7 -2.1,2.8 -1.1,2.6 -0.5,4.5 1.1,5.8 -2.6,1.5 -4.4,3.9 -3,7.3 2.2,5.3 9.7,5 14.4,5.2 4.4,0.2 8.7,0.1 13.1,-0.2 1.9,-0.1 4.5,0 5.9,-1.7 3.5,-4.3 -3.6,-6 -6.3,-6.4 -6.3,-1.1 -12.6,-1.2 -17.9,2.7 -0.4,0.3 -0.7,0.7 -0.8,1.1 -0.6,-0.1 -1.2,-0.2 -1.7,-0.3 -0.6,-1.4 -1.2,-2.9 -1.9,-4.3 0.2,-0.5 1.6,-0.9 3.3,-1.2 7.2,1.6 18,0.7 20.9,0.7 2.4,-0.1 7.5,-0.5 6.4,-4.4 -0.5,-1.7 -2.1,-2.5 -4,-2.9 1.5,-0.2 2.8,-0.7 3.9,-1.5 3,-2.2 1.9,-5 -0.9,-6.3 z m -15.3,-6.8 c 1.9,-0.1 6.1,-0.3 8.9,0.4 -2.4,0.4 -6.8,0.1 -10.9,-0.3 0.7,0 1.4,-0.1 2,-0.1 z m 2.6,26.5 c 1.5,0.1 2.9,0.4 4.4,0.7 -3.1,-0.1 -6.5,0.4 -9.6,0.3 -0.5,0 -1,0 -1.5,0 2.1,-0.8 4.3,-1.1 6.7,-1 z m -1.2,-12.6 c 1.3,0.1 2.8,0.4 4.4,0.6 -0.2,0 -0.4,0 -0.5,0.1 -5.1,0.6 -10.6,1.4 -15.7,2.7 -0.6,-0.2 -1.2,-0.4 -1.6,-0.7 -2.2,-0.4 -1.8,-1.6 1.2,-3.8 0.4,-0.2 0.8,-0.4 1.3,-0.6 4.3,0.9 8.9,1.5 10.9,1.7 z m 11.4,-3.3 c -3.4,0.3 -7.2,-0.3 -10.6,-0.6 -0.3,0 -0.7,-0.1 -1,-0.1 0.6,-0.1 1.3,-0.1 1.9,-0.2 1.8,-0.1 3.6,-0.2 5.5,0 1.3,0.1 2.6,0.2 3.9,0.6 2.3,0.4 2.4,0.5 0.3,0.3 z"
       id="path31"
       inkscape:connector-curvature="0"
       style="fill:#565456" /><path
       d="m 1040.4877,778.64986 c -5.6,-2.6 -13.3,-1.2 -19.1,-0.3 -1.9,0.3 -4.1,0.7 -6.2,1.4 -1.5,-0.3 -3.5,-0.8 -4.5,-1.7 -2,-0.4 -1.9,-1.3 0.4,-2.7 0.4,-0.3 0.8,-0.5 1.2,-0.7 0,0 0,0 0,0 2.7,-3.1 7.8,-2.7 11.6,-3 0.2,0 0.4,0.1 0.5,0.2 0.2,0 0.5,0 0.7,0 1.9,-0.1 6.1,-0.3 8.9,0.4 -2.1,0.3 -5.9,0.2 -9.5,-0.1 0.2,0.4 0,1 -0.6,1.1 -3,0.2 -7.1,-0.1 -9.7,1.7 5.1,0.7 30.1,3.2 24.9,-4.4 -2.3,-3.3 -11.4,-2.8 -14.9,-2.6 -5.4,0.3 -12.5,1.3 -16.7,5.2 -4.7,4.3 -2,7.3 2.7,9.2 -0.9,0.8 -1.6,1.7 -2.1,2.8 -1.1,2.6 -0.5,4.5 1.1,5.8 -2.6,1.5 -4.4,3.9 -3,7.3 1.3,3.3 4.7,4.4 8.3,4.9 0,-0.2 0.1,-0.5 0.3,-0.7 2.3,-1.2 4.3,-3 7,-3.2 1.9,-0.6 3.8,-0.8 5.9,-0.7 1.5,0.1 2.9,0.4 4.4,0.7 -2.9,-0.1 -6,0.3 -8.9,0.3 0.3,0.4 0.2,1.2 -0.5,1.2 -1.6,-0.1 -3.7,1.1 -5.6,2.3 -0.8,0.5 -0.4,1.7 0.5,1.7 0.9,0 1.8,0 2.4,0 4.4,0.2 9.3,-1.1 13.7,-1.3 1.9,-0.1 4.5,0 5.9,-1.7 3.5,-4.3 -3.6,-6 -6.3,-6.4 -6.3,-1.1 -12.6,-1.2 -17.9,2.7 -0.4,0.3 -0.7,0.7 -0.8,1.1 -0.6,-0.1 -1.2,-0.2 -1.7,-0.3 -0.6,-1.4 -1.2,-2.9 -1.9,-4.3 0.1,-0.3 0.8,-0.6 1.7,-0.9 0.1,-0.1 0.1,-0.2 0.2,-0.2 3.1,-1.8 6.5,-2.1 9.9,-2.8 3.6,-0.8 6.8,-1.5 10.6,-1.5 0.9,0 0.9,1.4 0,1.4 -3.6,0 -6.7,0.7 -10.2,1.4 -2.4,0.5 -4.9,0.8 -7.2,1.6 7.1,1.2 16.6,0.4 19.2,0.3 2.4,-0.1 7.5,-0.5 6.4,-4.4 -0.5,-1.7 -2.1,-2.5 -4,-2.9 1.5,-0.2 2.8,-0.7 3.9,-1.5 2.9,-2.3 1.8,-5.1 -1,-6.4 z m -2.5,3.8 c -3.2,0.3 -6.7,-0.2 -9.9,-0.6 -0.1,0.2 -0.2,0.3 -0.4,0.4 -1.9,0.5 -3.7,0.8 -5.6,1 -1.7,0.2 -3.5,0.2 -5,1 4,0.9 7.9,1.3 9.6,1.5 1.3,0.1 2.8,0.4 4.4,0.6 -0.2,0 -0.4,0 -0.5,0.1 -5.1,0.6 -10.6,1.4 -15.7,2.7 -0.6,-0.2 -1.2,-0.4 -1.6,-0.7 -2.2,-0.4 -1.8,-1.6 1.2,-3.8 0.1,0 0.2,-0.1 0.3,-0.1 0,-0.1 0.1,-0.2 0.2,-0.3 3.1,-3 8.7,-2.1 12.5,-3.2 0.5,-0.2 0.9,0.3 0.9,0.7 0.1,0 0.1,0 0.2,0 1.8,-0.1 3.6,-0.2 5.5,0 1.3,0.1 2.6,0.2 3.9,0.6 2,0.2 2,0.3 0,0.1 z"
       id="path33"
       inkscape:connector-curvature="0"
       style="fill:#828282" /><path
       d="m 1033.3877,771.74986 c -5.8,-1 -11.6,-1 -17.4,0 -0.6,0.1 -0.4,1.1 0.3,1 5.6,-0.9 11.3,-0.9 16.9,0 0.5,0.1 0.8,-0.9 0.2,-1 z"
       id="path35"
       inkscape:connector-curvature="0"
       style="fill:#b2abb2" /><path
       d="m 1038.3877,781.74986 c -7.3,-1.6 -14.9,-1.9 -22.1,0.4 -0.6,0.2 -0.3,1.2 0.3,1 7.1,-2.3 14.4,-2 21.6,-0.4 0.5,0.1 0.8,-0.8 0.2,-1 z"
       id="path37"
       inkscape:connector-curvature="0"
       style="fill:#b2abb2" /><path
       d="m 1034.0877,789.14986 c -3.5,0.3 -7.1,0.6 -10.6,1.1 -2.6,0.3 -6,0.2 -8.2,1.5 -0.6,0.3 -0.1,1.2 0.5,0.9 1.3,-0.7 3,-0.7 4.5,-0.9 1.7,-0.2 3.4,-0.5 5.2,-0.7 2.9,-0.3 5.8,-0.6 8.7,-0.8 0.5,-0.1 0.5,-1.1 -0.1,-1.1 z"
       id="path39"
       inkscape:connector-curvature="0"
       style="fill:#b2abb2" /><path
       d="m 1030.6877,798.64986 c -4.9,-0.6 -10.2,-1.1 -14.5,1.5 -1.1,0.4 -2.2,1 -3.2,1.7 -0.3,0.2 -0.3,0.5 -0.1,0.7 0,0.1 0,0.2 0.1,0.3 0.4,0.4 0.9,0.5 1.4,0.4 0.3,-0.1 0.4,-0.4 0.3,-0.7 0.1,0 0.1,-0.1 0.2,-0.1 0.5,-0.5 1.1,-0.9 1.7,-1.3 4.4,-1.8 9.4,-1.7 14.2,-1.4 0.5,-0.1 0.5,-1 -0.1,-1.1 z"
       id="path41"
       inkscape:connector-curvature="0"
       style="fill:#aaaaaa" /><path
       d="m 1033.4877,789.04986 c -1.8,-0.3 -3.7,0 -5.5,0.4 -1.5,0 -3,0 -4.5,0.2 -1.7,0.2 -3.3,0.5 -4.9,0.9 -1.2,0.1 -2.5,0.4 -3.6,1 0,0 0,0 0,0 0,0 -0.1,0 -0.1,0 -0.6,0.2 -0.3,1.2 0.3,1 1.3,-0.4 2.7,-0.8 4,-1.1 1.8,-0.2 3.7,-0.1 5.5,-0.4 1.3,-0.2 2.6,-0.5 3.9,-0.8 1.7,0 3.4,0 5,-0.3 0.4,0 0.4,-0.8 -0.1,-0.9 z"
       id="path43"
       inkscape:connector-curvature="0"
       style="fill:#aaaaaa" /></g></svg>